<svg xmlns:dc="http://purl.org/dc/elements/1.1/" xmlns:cc="http://creativecommons.org/ns#" xmlns:rdf="http://www.w3.org/1999/02/22-rdf-syntax-ns#" xmlns:svg="http://www.w3.org/2000/svg" xmlns="http://www.w3.org/2000/svg" version="1.2" width="360" height="90"><style>.style0{fill:	#d7d8e3;display:	none;}.style1{font-size:	40px;font-weight:	300;text-align:	start;line-height:	125%;letter-spacing:	0px;word-spacing:	0px;writing-mode:	lr-tb;text-anchor:	start;fill:	#2b71b4;font-family:	Open Sans;-inkscape-font-specification:	Open Sans Light;}.style2{font-size:	40px;font-weight:	300;text-align:	start;line-height:	125%;writing-mode:	lr-tb;text-anchor:	start;fill:	#2b71b4;font-family:	Open Sans;-inkscape-font-specification:	Open Sans Light;}.style3{fill:	#1b75bb;fill-rule:	nonzero;}.style4{font-size:	73.79576111px;font-weight:	300;text-align:	start;line-height:	125%;letter-spacing:	0px;word-spacing:	0px;writing-mode:	lr-tb;text-anchor:	start;fill:	#2b71b4;font-family:	Open Sans;-inkscape-font-specification:	Open Sans Light;}.style5{font-size:	23.48047066px;font-weight:	300;text-align:	start;line-height:	125%;letter-spacing:	0px;word-spacing:	0px;writing-mode:	lr-tb;text-anchor:	start;fill:	#2b71b4;font-family:	Open Sans;-inkscape-font-specification:	Open Sans Light;}.style6{line-height:	125%;font-family:	Open Sans;-inkscape-font-specification:	Open Sans Light;}</style><defs><clipPath><path d="M 0 792 612 792 612 0 0 0 0 792 z"/></clipPath></defs><metadata><rdf:RDF><cc:Work rdf:about=""><dc:format>image/svg+xml</dc:format><dc:type rdf:resource="http://purl.org/dc/dcmitype/StillImage"/><dc:title/></cc:Work></rdf:RDF></metadata><g><path d="m 314.3 211.2 c -92 0 -167.2 75.1 -167.2 167.2 0 92 75.1 167.2 167.2 167.2 C 406.4 545.6 481.5 470.5 481.5 378.4 481.5 286.4 406.4 211.2 314.3 211.2 z" transform="matrix(0.93712593,0,0,0.93712593,60.217558,55.296801)" class="style0"/><flowRoot transform="translate(147.24293,-70.789866)" xml:space="preserve" class="style1"><flowRegion><rect width="186.9" height="127.4" x="387.9" y="442.2" class="style2"/></flowRegion><flowPara>PROBLEMS</flowPara></flowRoot>    <g transform="matrix(0.29812009,0,0,0.29812009,122.39352,-151.33391)"><g transform="matrix(1.25,0,0,-1.25,228.66378,587.6815)"><path d="m 0 0 c 6.5 1.3 13.2 5.1 15.9 11.1 2.9 6.1 -0.2 13.1 -4.5 16.5 -9 7.2 -18.2 6 -17.9 6.4 -0.2 -0.3 7.9 1.3 17.4 -4.8 4.5 -2.9 9 -9.3 7.2 -16.4 C 16.4 5.7 9.7 0.8 3 -1.2 -10.8 -5.1 -22.4 0.1 -27.3 5.7 c -5.1 5.9 -3.9 10.7 -3.9 10.5 0.4 0.1 0 -0.6 1.9 -5.2 C -27.5 7 -19.1 -3 0 0" class="style3"/></g><g transform="matrix(1.25,0,0,-1.25,201.9914,529.84824)"><path d="m 0 0 c -14 -3 -28.3 -11.9 -34 -25.4 -5.9 -13.7 0.5 -28.8 9.7 -36.6 19.3 -16.1 39 -13.3 38.3 -13.9 0.5 0.7 -17.2 -2.6 -36.8 11.4 -9.2 6.7 -17.9 20.3 -14.2 35 3.3 14.6 16.8 25.4 30.9 29.9 29.3 8.8 53.8 -3.1 63.5 -15.1 10.2 -12.6 7.8 -22.4 8.2 -22 -0.6 -0.1 0.5 1.1 -3.1 11.5 -2.2 4.9 -6.7 12.1 -16.7 18.3 C 36 -1 20 4.3 0 0" class="style3"/></g><g transform="matrix(1.25,0,0,-1.25,304.78428,566.90762)"><path d="m 0 0 c -9.5 19.4 -30.9 31.5 -51.8 35.2 -21.1 4 -42.5 0.5 -58.4 -7.7 -16.2 -8 -26.2 -20.8 -30.1 -30.8 -3.9 -10.1 -3.1 -16.7 -3.4 -16.7 0.2 -0.1 -0.5 5.9 2.7 15.5 3.1 9.5 11.9 22 26.7 30.7 14.6 8.8 34.8 13.7 55.8 11.5 20.7 -2 42.9 -11.6 56 -29.6 13.4 -18.2 10.7 -41.3 0.8 -54.8 -9.7 -14 -22.7 -21.3 -33.2 -25.3 -21.7 -7.8 -34.2 -5.5 -34 -5.9 -0 0.6 1.3 -0.3 17.3 2.4 7.8 1.8 19.8 4.4 33.9 14.6 6.9 5.1 14.2 12.4 18.8 22.9 C 5.6 -27.6 6.7 -13.4 0 0" class="style3"/></g><g transform="matrix(1.25,0,0,-1.25,131.75215,668.82412)"><path d="m 0 0 c 26.9 -25.4 70.5 -30.1 99.3 -21.5 29.9 8 44.3 26.1 44.1 25.7 0 0.5 -12.5 -16.6 -40.5 -25.6 -26.9 -9.4 -69.1 -7.9 -98.8 15.4 -14.7 11.3 -23.6 26.3 -26.5 40.2 -3 14 -0.4 26.4 3.2 35.3 7.7 17.9 16.7 24.1 16.3 24.2 C -2.4 93.4 -3.6 93 -11.3 81.7 -14.8 75.9 -20.1 66.9 -21.6 52.4 -23.2 38.2 -18.8 17.3 0 0" class="style3"/></g><g transform="matrix(1.25,0,0,-1.25,330.21403,597.06387)"><path d="M 0 0 C -1.2 7.3 -4.5 15.6 -4.5 15.6 -4.6 15.7 0.2 8.8 1.7 1.1 3.2 -6.5 2.6 -10.8 2.4 -10.7 1.8 -10.8 1.6 -10.2 0 0" class="style3"/></g><g transform="matrix(1.25,0,0,-1.25,109.0739,683.13437)"><path d="m 0 0 c 13.6 -18.4 36.2 -30.8 54.5 -35.7 18.4 -5.2 32 -4.4 32 -4.7 0.1 0.2 -12.4 -0.9 -30.1 3.2 -17.5 3.9 -40.1 14.6 -55.1 32.6 -15.1 17.8 -18.6 36.8 -18.5 48.7 0.2 12.2 2.9 18.2 2.8 18.1 0.3 -0.1 0 -0.7 -1.1 -9.2 -0.4 -4.2 -0.8 -10.6 0.7 -19.6 C -13.2 24.5 -9.6 12.6 0 0" class="style3"/></g><g transform="matrix(1.25,0,0,-1.25,260.3984,749.70299)"><path d="m 0 0 c 11.8 3.5 24.1 9.2 32.5 15.2 8.6 5.7 13.6 11.1 13.7 11 C 46.7 26.1 27.6 5.9 2.8 -1.1 -21.3 -8.3 -35.5 -6.3 -35.3 -6.4 c -0 0.2 0.4 0.5 5 0.9 4.6 0.7 13.7 0.8 30.3 5.5" class="style3"/></g><g transform="matrix(1.25,0,0,-1.25,110.16403,573.64224)"><path d="m 0 0 c -13.4 -17.9 -20.7 -40.8 -19.8 -63.6 0.7 -22.8 9.8 -45.2 24.4 -62.1 14.6 -17 34.4 -28.7 54.9 -33.5 20.5 -4.9 41.3 -3.4 59 2.7 36.2 12.1 56.7 40.9 64.1 61.7 7.7 21.4 5.9 35.1 6.4 35 -0.4 0.1 1.2 -12.4 -5.2 -32.5 -6.2 -19.6 -23.7 -47.3 -56.8 -61.9 -32 -15 -79.7 -12.6 -113.1 17 -16.6 14.3 -28.9 34.6 -33.5 56.9 -4.6 22.3 -1.5 46.3 8.9 66.6 10.3 20.3 26.6 35.8 44.4 45.2 17.8 9.5 36.9 13.1 54.3 12.4 35.3 -1.3 62.2 -19.1 77.2 -37.1 15.5 -18.3 20.7 -36.5 22.8 -48.3 2.1 -12 1.3 -18.3 1.4 -18.3 -0.1 -0 -0.2 0.6 -0.5 5.5 -0.6 4.8 -0.9 14.1 -6.8 30 C 176.1 -9.2 163.3 14.8 130.7 31.4 114.6 39.3 93.4 44.3 69.4 41 45.6 37.8 18.8 25.2 0 0" class="style3"/></g><g transform="matrix(1.25,0,0,-1.25,270.94153,560.60749)"><path d="m 0 0 c 11.8 -1.3 24.2 -5.2 32.9 -9.9 8.8 -4.6 13.9 -9.4 13.9 -9.3 -0 -0.1 -5 3.9 -13.3 7.9 -8.2 4.1 -19.9 7.6 -31.5 9.1 -23.2 2.8 -36 -0.6 -36 0 -0 0.2 0.2 0.7 4.6 1.5 C -25.1 0.1 -16.5 1.7 0 0" class="style3"/></g><g transform="matrix(1.25,0,0,-1.25,304.95403,686.73787)"><path d="M 0 0 C -6.9 30.9 -30.4 60.3 -30.3 60.1 -30.6 60.3 -6.9 34.6 1 3.4 5.4 -11.7 6.6 -24.2 5.3 -32.5 4.2 -40.9 0.7 -44.5 0.7 -44.3 c -0.3 0.2 0.4 0.5 2.1 6 C 4.4 -32.7 5.7 -21.1 0 0" class="style3"/></g><g transform="matrix(1.25,0,0,-1.25,339.5914,654.31237)"><path d="m 0 0 c -1.3 6.5 -3.8 13.3 -6.7 18.1 -2.9 4.8 -5.8 7.4 -5.8 7.5 -0.1 -0.1 2.9 -2.2 6.2 -6.4 C -3 14.9 0 8.3 1.6 1.7 4.4 -11.7 3.2 -19.3 3 -19.2 2.2 -19.3 3 -18.3 0 0" class="style3"/></g><g transform="matrix(1.25,0,0,-1.25,273.69428,541.37537)"><path d="M 0 0 C -5.5 -1.1 -11.9 -2.2 -12 -2.2 -12 -2.3 -6.5 0.6 -0.9 1.7 4.6 2.9 7.8 3.1 7.8 2.7 7.9 2.3 7.7 1.5 0 0" class="style3"/></g><g transform="matrix(1.25,0,0,-1.25,233.63928,535.94199)"><path d="m 0 0 c -3.9 -7.9 -8.5 -17.4 -8.5 -17.4 -0 -0 2.5 9.3 6.4 17.4 3.7 8.2 7.7 11.8 7.8 11.5 C 6.3 11.1 5.6 10.9 0 0" class="style3"/></g><g transform="matrix(1.25,0,0,-1.25,210.24215,536.523)"><path d="M 0 0 C 4.8 -6.9 6.5 -16.6 6.2 -16.6 6.4 -16.5 3.3 -8.3 -1.2 -1.7 -5.5 5.1 -8.6 8.2 -8.3 8.6 -8.1 8.7 -6.6 9.5 0 0" class="style3"/></g><g transform="matrix(1.25,0,0,-1.25,172.21603,541.02987)"><path d="m 0 0 c 17 -2.7 33.3 -14.6 33 -14.7 0.2 0.1 -15.5 9.5 -31.8 12.5 -16.3 3.2 -25.3 0.5 -25.4 1.2 -0 0.2 0.1 0.5 3.2 1.2 C -17.9 0.9 -11.6 2.1 0 0" class="style3"/></g><g transform="matrix(1.25,0,0,-1.25,126.99753,570.1815)"><path d="M 0 0 C 16.5 7.7 37.8 7.8 37.6 7.7 37.7 7.7 18.4 6.1 2.3 -1 -13.8 -8.1 -21.2 -14.7 -21.5 -14.1 -21.5 -14.3 -22.3 -11.2 0 0" class="style3"/></g><g transform="matrix(1.25,0,0,-1.25,114.39615,616.74525)"><path d="m 0 0 c 14.4 14.8 33.9 26.4 49.9 32.4 16 6.2 28.1 7.3 28.1 7.3 0 0 -11 -1.5 -25.9 -7.4 C 37.2 26.4 18.8 15.5 4.1 1.4 -10.7 -12.6 -15.9 -28.2 -17.8 -38.5 c -1.9 -10.4 -1.4 -16.1 -1.7 -16 -0.1 -0 -0.8 0.5 -0.5 8.3 0.2 3.8 0.7 9.6 3.1 17.5 C -14.6 -20.8 -9.9 -10.5 0 0" class="style3"/></g><g transform="matrix(1.25,0,0,-1.25,119.96253,715.23525)"><path d="M 0 0 C 0.7 14.2 8.3 28.9 8.2 28.8 8.3 28.8 3 14.8 1.9 1.2 0.9 -12.4 3.6 -19.7 3 -19.8 2.8 -19.9 2.4 -19.8 1.6 -17.3 0.8 -14.8 -0.5 -9.8 0 0" class="style3"/></g><g transform="matrix(1.25,0,0,-1.25,213.81515,569.55775)"><path d="M 0 0 z" class="style3"/></g><g transform="matrix(1.25,0,0,-1.25,197.7299,651.379)"><path d="m 0 0 c -5 -22.1 -9.6 -46.4 -11 -65.3 -1.5 -18.9 -0.1 -32.2 -0.1 -32.2 -0.1 -0 -1.8 12.1 -1 30.1 0.6 17.9 4.4 41.4 9.2 63.6 10 44.4 18.1 68.1 18.4 68 C 16.4 63.9 14.9 61.7 0 0" class="style3"/></g><g transform="matrix(1.25,0,0,-1.25,237.24403,623.40662)"><path d="M 0 0 C 7.1 -29.1 10.8 -63.9 10.6 -63.9 10.8 -63.9 5.7 -32.2 -1.2 -3.2 -7.9 25.8 -12.7 41.5 -12.2 41.6 -12.1 41.6 -9.8 40.5 0 0" class="style3"/></g><g transform="matrix(1.25,0,0,-1.25,247.50403,773.12099)"><path d="M 0 0 z" class="style3"/></g></g><g transform="matrix(0.29812009,0,0,0.29812009,-61.874268,-103.59227)" class="style4"><path d="m 437.4 514.6 -3 0 -11.6 -40.6 c -1 -3.3 -1.7 -6.1 -2.2 -8.2 -0.4 2.1 -0.9 4.5 -1.7 7.2 -0.7 2.7 -4.6 16.6 -11.6 41.7 l -3.1 0 -14.5 -52.7 3.9 0 9.2 33.9 c 0.4 1.4 0.7 2.6 1 3.8 0.3 1.2 0.6 2.2 0.8 3.3 0.3 1 0.5 2 0.7 3 0.2 0.9 0.4 1.9 0.6 2.8 0.6 -3.3 1.8 -8.2 3.7 -14.9 l 9 -32 4.1 0 10.6 36.7 c 1.2 4.2 2.1 7.6 2.6 10.2 0.3 -1.7 0.7 -3.6 1.2 -5.5 0.5 -1.9 4.2 -15.7 11.1 -41.4 l 3.7 0 -14.6 52.7"/><path d="m 504.8 488.1 c -0 8.4 -2.1 15 -6.3 19.9 -4.2 4.9 -9.9 7.3 -17.3 7.3 -7.3 0 -13.1 -2.4 -17.3 -7.3 -4.2 -4.9 -6.3 -11.5 -6.3 -19.9 -0 -8.4 2.1 -15 6.3 -19.8 4.2 -4.8 10 -7.2 17.3 -7.2 7.4 0 13.1 2.4 17.3 7.3 4.2 4.8 6.2 11.4 6.2 19.8 m -43.1 0 c -0 7.5 1.7 13.4 5 17.5 3.4 4.1 8.2 6.2 14.5 6.2 6.3 0 11.2 -2 14.5 -6.1 3.4 -4.1 5 -9.9 5 -17.5 -0 -7.6 -1.7 -13.4 -5 -17.4 -3.3 -4.1 -8.2 -6.1 -14.4 -6.1 -6.3 0 -11.1 2 -14.5 6.1 -3.4 4.1 -5.1 9.9 -5.1 17.4"/><path d="m 520.6 491.6 0 23 -3.7 0 0 -52.7 12.5 0 c 6.5 0 11.4 1.2 14.5 3.6 3.1 2.4 4.7 6 4.7 10.9 -0 3.5 -0.9 6.5 -2.8 8.9 -1.8 2.4 -4.7 4.2 -8.5 5.2 l 14.3 24 -4.4 0 -13.6 -23 -13.1 0 m 0 -3.2 10.1 0 c 4.4 0 7.9 -1 10.3 -3 2.5 -2 3.7 -4.9 3.7 -8.8 -0 -4 -1.2 -6.9 -3.6 -8.8 -2.4 -1.8 -6.3 -2.7 -11.7 -2.7 l -8.7 0 0 23.2"/><path d="m 560.7 514.6 0 -52.7 3.7 0 0 49.2 25.1 0 0 3.5 -28.8 0"/><path d="m 638.6 487.7 c -0 8.8 -2.3 15.5 -7 20.1 -4.6 4.5 -11.4 6.8 -20.4 6.8 l -12.6 0 0 -52.7 14.2 0 c 8.4 0 14.8 2.2 19.2 6.6 4.4 4.4 6.6 10.8 6.6 19.2 m -4 0.1 c -0 -7.5 -1.9 -13.2 -5.8 -17 -3.8 -3.8 -9.4 -5.7 -16.9 -5.7 l -9.7 0 0 46.2 8.7 0 c 15.7 0 23.6 -7.8 23.6 -23.5"/></g><g transform="matrix(0.29812009,0,0,0.29812009,126.10265,-103.59227)" class="style4"><path d="m 427.1 477 c -0 5.1 -1.7 9 -5.2 11.7 -3.5 2.7 -8.4 4.1 -14.7 4.1 l -8.1 0 0 21.8 -3.7 0 0 -52.7 12.9 0 c 12.5 0 18.8 5 18.8 15.1 m -28 12.6 7.2 0 c 5.9 0 10.2 -1 12.9 -2.9 2.6 -2 4 -5.2 4 -9.5 -0 -4.1 -1.2 -7.1 -3.7 -9 -2.5 -2 -6.4 -3 -11.6 -3 l -8.7 0 0 24.4"/><path d="m 442.3 491.6 0 23 -3.7 0 0 -52.7 12.5 0 c 6.5 0 11.4 1.2 14.5 3.6 3.1 2.4 4.7 6 4.7 10.9 -0 3.5 -0.9 6.5 -2.8 8.9 -1.8 2.4 -4.7 4.2 -8.5 5.2 l 14.3 24 -4.4 0 -13.6 -23 -13.1 0 m 0 -3.2 10.1 0 c 4.4 0 7.9 -1 10.3 -3 2.5 -2 3.7 -4.9 3.7 -8.8 -0 -4 -1.2 -6.9 -3.6 -8.8 -2.4 -1.8 -6.3 -2.7 -11.7 -2.7 l -8.7 0 0 23.2"/><path d="m 526.7 488.1 c -0 8.4 -2.1 15 -6.3 19.9 -4.2 4.9 -9.9 7.3 -17.3 7.3 -7.3 0 -13.1 -2.4 -17.3 -7.3 -4.2 -4.9 -6.3 -11.5 -6.3 -19.9 -0 -8.4 2.1 -15 6.3 -19.8 4.2 -4.8 10 -7.2 17.3 -7.2 7.4 0 13.1 2.4 17.3 7.3 4.2 4.8 6.2 11.4 6.2 19.8 m -43.1 0 c -0 7.5 1.7 13.4 5 17.5 3.4 4.1 8.2 6.2 14.5 6.2 6.3 0 11.2 -2 14.5 -6.1 3.4 -4.1 5 -9.9 5 -17.5 -0 -7.6 -1.7 -13.4 -5 -17.4 -3.3 -4.1 -8.2 -6.1 -14.4 -6.1 -6.3 0 -11.1 2 -14.5 6.1 -3.4 4.1 -5.1 9.9 -5.1 17.4"/><path d="m 538.8 461.9 14.4 0 c 6.5 0 11.3 1.1 14.3 3.3 3.1 2.2 4.6 5.5 4.6 10 -0 3.1 -0.9 5.6 -2.8 7.6 -1.8 2 -4.6 3.3 -8.1 3.9 l 0 0.2 c 4.2 0.6 7.3 2 9.3 4 2 2 3 4.8 3 8.5 -0 4.9 -1.6 8.6 -4.8 11.2 -3.2 2.6 -7.8 3.9 -13.7 3.9 l -16.1 0 0 -52.7 m 3.7 23.5 11.6 0 c 4.9 0 8.5 -0.8 10.8 -2.5 2.3 -1.7 3.4 -4.2 3.4 -7.7 -0 -3.5 -1.3 -6.1 -3.8 -7.6 -2.5 -1.6 -6.3 -2.4 -11.3 -2.4 l -10.6 0 0 20.2 m 0 3.2 0 22.7 12.4 0 c 9.8 0 14.6 -4 14.6 -11.9 -0 -7.2 -5.1 -10.8 -15.4 -10.8 l -11.6 0"/><path d="m 585.1 514.6 0 -52.7 3.7 0 0 49.2 25.1 0 0 3.5 -28.8 0"/><path d="m 651.8 514.6 -28.8 0 0 -52.7 28.8 0 0 3.4 -25.1 0 0 19.9 23.7 0 0 3.4 -23.7 0 0 22.6 25.1 0 0 3.4"/><path d="m 686.9 514.6 -19.6 -48.6 -0.3 0 c 0.2 3 0.3 6 0.3 9.2 l 0 39.5 -3.5 0 0 -52.7 5.7 0 18.7 46.3 0.2 0 18.7 -46.3 5.5 0 0 52.7 -3.7 0 0 -39.9 c -0 -2.8 0.1 -5.7 0.4 -8.6 l -0.3 0 -19.7 48.6 -2.3 0"/><path d="m 756.6 501 c -0 4.4 -1.6 7.9 -4.9 10.4 -3.2 2.6 -7.5 3.9 -12.9 3.9 -6.4 0 -11.4 -0.7 -14.8 -2.1 l 0 -3.7 c 3.8 1.6 8.6 2.4 14.5 2.4 4.3 0 7.7 -1 10.3 -3 2.5 -2 3.8 -4.6 3.8 -7.8 -0 -2 -0.4 -3.6 -1.3 -4.9 -0.8 -1.3 -2.2 -2.5 -4.1 -3.6 -1.9 -1.1 -4.7 -2.2 -8.4 -3.5 -5.4 -1.8 -9.1 -3.8 -11.2 -6 -2 -2.2 -3.1 -5 -3.1 -8.6 0 -3.9 1.5 -7.1 4.6 -9.6 3.1 -2.5 7.1 -3.7 11.9 -3.7 4.9 0 9.6 0.9 13.9 2.8 l -1.3 3.2 c -4.4 -1.8 -8.6 -2.7 -12.5 -2.7 -3.9 0 -7 0.9 -9.3 2.7 -2.3 1.8 -3.5 4.3 -3.5 7.4 -0 1.9 0.3 3.5 1 4.8 0.7 1.2 1.9 2.4 3.5 3.4 1.6 1 4.4 2.2 8.3 3.6 4.1 1.4 7.2 2.8 9.3 4.1 2.1 1.3 3.6 2.8 4.5 4.5 1 1.7 1.4 3.7 1.4 6.1"/></g><g transform="matrix(-0.29812009,0,0,-0.29812009,294.12946,164.30894)" class="style5"><path d="m 346 269.5 c 2.1 -0.1 3.7 -0.8 4.9 -2.2 1.1 -1.4 1.7 -3.3 1.6 -5.6 -0.1 -2.4 -0.8 -4.2 -2 -5.5 -1.2 -1.3 -2.9 -1.9 -5 -1.8 -1.4 0.1 -2.7 0.3 -3.8 0.7 l -0 -1 c 1.1 -0.4 2.5 -0.7 4.1 -0.8 2.4 -0.1 4.2 0.6 5.7 2 1.4 1.5 2.2 3.5 2.3 6.3 0.1 1.7 -0.2 3.2 -0.8 4.5 -0.6 1.3 -1.5 2.4 -2.6 3.1 -1.2 0.8 -2.6 1.2 -4.2 1.3 -1.6 0.1 -3.1 -0.2 -4.4 -0.7 l 0.4 -1.1 c 1.2 0.6 2.5 0.8 3.9 0.7" class="style6"/><path d="m 337.8 254.1 2.2 16.6 -1.2 0.2 -2.1 -15.5 -7.9 1 -0.1 -1.1 9.1 -1.2" class="style6"/><path d="m 325.9 255.9 3.2 16.5 -1.1 0.2 -3.2 -16.5 1.1 -0.2" class="style6"/><path d="m 317.2 274.3 c 2 -0.5 3.5 -1.6 4.3 -3.2 0.8 -1.6 0.9 -3.5 0.4 -5.8 -0.6 -2.3 -1.6 -4 -3.1 -5 -1.4 -1 -3.2 -1.2 -5.2 -0.7 -1.4 0.4 -2.6 0.9 -3.6 1.5 l -0.3 -1 c 1 -0.7 2.3 -1.2 3.9 -1.6 2.3 -0.6 4.3 -0.3 6 0.8 1.7 1.1 2.9 3 3.6 5.7 0.4 1.6 0.5 3.2 0.2 4.6 -0.3 1.4 -0.9 2.6 -1.9 3.6 -1 1 -2.3 1.7 -3.8 2.1 -1.6 0.4 -3.1 0.5 -4.5 0.2 l 0.2 -1.1 c 1.3 0.3 2.7 0.3 4 -0.1" class="style6"/><path d="m 295.5 264.8 1.3 -0.5 9.1 6.1 1.4 -2.6 -2.3 -6.5 1.1 -0.4 5.7 15.8 -1.1 0.4 -3 -8.2 -1.1 2.4 -3.9 8.7 -1.4 0.5 4.1 -9 -9.9 -6.7" class="style6"/><path d="m 283.8 270.3 1.1 -0.5 7.1 14 4.9 -2.5 0.5 1 -10.8 5.4 -0.5 -1 4.9 -2.5 -7.1 -14" class="style6"/><path d="m 269.7 288.4 c -1.4 -2.3 -2 -4.4 -1.7 -6.4 0.3 -2 1.4 -3.6 3.4 -4.9 2 -1.2 3.9 -1.6 5.9 -1 2 0.6 3.6 2 5.1 4.3 1.4 2.3 2 4.4 1.7 6.4 -0.3 2 -1.5 3.6 -3.4 4.9 -2 1.2 -3.9 1.6 -5.9 1 -1.9 -0.6 -3.6 -2 -5 -4.3 m 11.6 -7.3 c -1.3 -2 -2.7 -3.3 -4.3 -3.9 -1.6 -0.5 -3.3 -0.3 -4.9 0.8 -1.7 1.1 -2.7 2.4 -2.9 4.1 -0.2 1.7 0.3 3.5 1.6 5.6 1.3 2 2.7 3.3 4.3 3.8 1.6 0.5 3.2 0.3 4.9 -0.8 1.7 -1.1 2.6 -2.4 2.9 -4.1 0.2 -1.7 -0.3 -3.5 -1.6 -5.5" class="style6"/><path d="m 261.2 293.6 -4.7 -5.6 0.9 -0.8 10.8 12.8 -3 2.6 c -1.6 1.3 -3 2 -4.3 2.1 -1.3 0.1 -2.4 -0.5 -3.4 -1.7 -0.7 -0.9 -1.1 -1.8 -1.2 -2.7 -0 -1 0.3 -2 1 -3 l -8.4 -2.9 1.1 -0.9 8 2.8 3.2 -2.7 m 0.7 0.8 -2.4 2.1 c -1.1 0.9 -1.7 1.9 -1.9 2.8 -0.2 1 0.1 2 0.9 2.9 0.8 1 1.7 1.4 2.7 1.4 1 -0 2.1 -0.6 3.4 -1.7 l 2.1 -1.8 -4.8 -5.6" class="style6"/><path d="m 240.4 303 6.5 -6.5 11.9 11.8 -6.5 6.5 -0.8 -0.8 5.6 -5.7 -4.5 -4.5 -5.3 5.3 -0.8 -0.8 5.3 -5.3 -5.1 -5.1 -5.6 5.7 -0.8 -0.8" class="style6"/><path d="m 237.1 306.7 0.8 -0.9 12.8 10.9 -6 7 -0.8 -0.7 5.2 -6.1 -5.4 -4.6 -4.9 5.8 -0.8 -0.7 4.9 -5.8 -5.7 -4.9" class="style6"/><path d="m 235.5 320.1 -5.9 -4.3 0.7 -0.9 13.6 9.8 -2.3 3.2 c -1.2 1.7 -2.4 2.7 -3.6 3.1 -1.2 0.4 -2.4 0.1 -3.7 -0.8 -0.9 -0.7 -1.5 -1.5 -1.8 -2.4 -0.3 -0.9 -0.2 -2 0.2 -3.2 l -8.9 -0.8 0.8 -1.1 8.5 0.8 2.4 -3.4 m 0.8 0.6 -1.9 2.6 c -0.8 1.1 -1.2 2.2 -1.2 3.2 0.1 1 0.6 1.9 1.6 2.6 1 0.7 2 1 2.9 0.7 0.9 -0.3 1.9 -1.1 2.9 -2.5 l 1.6 -2.3 -6 -4.3" class="style6"/><path d="m 217.6 334.2 4.7 -7.9 14.4 8.6 -4.7 7.9 -0.9 -0.6 4.1 -6.9 -5.4 -3.3 -3.9 6.5 -0.9 -0.6 3.9 -6.5 -6.2 -3.7 -4.1 6.9 -0.9 -0.6" class="style6"/><path d="m 215.6 347.8 c -1.3 -0.6 -2 -1.6 -2.3 -2.9 -0.3 -1.3 -0 -2.7 0.7 -4.2 0.9 -1.8 1.8 -3.1 2.7 -3.9 l 1 0.5 c -1 0.9 -1.9 2.1 -2.7 3.8 -0.6 1.2 -0.8 2.4 -0.6 3.3 0.2 1 0.8 1.7 1.7 2.2 0.6 0.3 1.1 0.4 1.6 0.3 0.5 -0.1 1 -0.3 1.6 -0.7 0.6 -0.4 1.3 -1 2.2 -1.9 1.3 -1.3 2.4 -2.1 3.3 -2.3 0.9 -0.3 1.9 -0.2 2.9 0.3 1.1 0.6 1.8 1.4 2.1 2.7 0.3 1.2 0.1 2.5 -0.6 3.9 -0.7 1.4 -1.6 2.6 -2.8 3.6 l -0.7 -0.8 c 1.1 -1 2 -2.1 2.5 -3.2 0.5 -1.1 0.7 -2.1 0.5 -3 -0.2 -0.9 -0.7 -1.6 -1.6 -2 -0.6 -0.3 -1.1 -0.4 -1.5 -0.4 -0.5 0 -0.9 0.2 -1.5 0.5 -0.5 0.3 -1.2 0.9 -2.2 1.9 -1 1 -1.8 1.7 -2.5 2.1 -0.7 0.4 -1.3 0.6 -1.9 0.6 -0.6 0 -1.3 -0.1 -2 -0.4" class="style6"/><path d="m 206 360.5 0.4 -1.1 7.7 2.9 3.5 -9.2 -7.7 -2.9 0.4 -1.1 15.7 5.9 -0.4 1.1 -7 -2.6 -3.5 9.2 7 2.6 -0.4 1.1 -15.7 -5.9" class="style6"/></g></g></svg>