<?xml version="1.0" encoding="UTF-8" standalone="no"?>
<!-- Created with Inkscape (http://www.inkscape.org/) -->

<svg
   xmlns:dc="http://purl.org/dc/elements/1.1/"
   xmlns:cc="http://creativecommons.org/ns#"
   xmlns:rdf="http://www.w3.org/1999/02/22-rdf-syntax-ns#"
   xmlns:svg="http://www.w3.org/2000/svg"
   xmlns="http://www.w3.org/2000/svg"
   xmlns:xlink="http://www.w3.org/1999/xlink"
   xmlns:sodipodi="http://sodipodi.sourceforge.net/DTD/sodipodi-0.dtd"
   xmlns:inkscape="http://www.inkscape.org/namespaces/inkscape"
   width="360"
   height="90"
   id="svg2"
   version="1.1"
   inkscape:version="0.48.2 r9819"
   sodipodi:docname="world-problems-globe-inkscape.svg">
  <defs
     id="defs4">
    <clipPath
       id="clipPath3018"
       clipPathUnits="userSpaceOnUse">
      <path
         id="path3020"
         d="M 0,792 612,792 612,0 0,0 0,792 z"
         inkscape:connector-curvature="0" />
    </clipPath>
  </defs>
  <sodipodi:namedview
     id="base"
     pagecolor="#ffffff"
     bordercolor="#666666"
     borderopacity="1.0"
     inkscape:pageopacity="0.0"
     inkscape:pageshadow="2"
     inkscape:zoom="2.8252632"
     inkscape:cx="185.5387"
     inkscape:cy="13.397792"
     inkscape:document-units="px"
     inkscape:current-layer="layer1"
     showgrid="false"
     inkscape:window-width="1503"
     inkscape:window-height="1042"
     inkscape:window-x="1739"
     inkscape:window-y="160"
     inkscape:window-maximized="0"
     inkscape:snap-grids="true" />
  <metadata
     id="metadata7">
    <rdf:RDF>
      <cc:Work
         rdf:about="">
        <dc:format>image/svg+xml</dc:format>
        <dc:type
           rdf:resource="http://purl.org/dc/dcmitype/StillImage" />
        <dc:title></dc:title>
      </cc:Work>
    </rdf:RDF>
  </metadata>
  <g
     inkscape:label="Layer 1"
     inkscape:groupmode="layer"
     id="layer1">
    <path
       sodipodi:type="inkscape:offset"
       inkscape:radius="24.181988"
       inkscape:original="M 314.3125 235.4375 C 235.33825 235.4375 171.3125 299.46325 171.3125 378.4375 C 171.3125 457.41175 235.33825 521.4375 314.3125 521.4375 C 393.28675 521.4375 457.3125 457.41175 457.3125 378.4375 C 457.3125 299.46325 393.28675 235.4375 314.3125 235.4375 z "
       style="fill:#d7d8e3;fill-opacity:1;display:none"
       id="path4292"
       d="m 314.3125,211.25 c -92.04408,0 -167.1875,75.14342 -167.1875,167.1875 0,92.04408 75.14342,167.1875 167.1875,167.1875 C 406.35658,545.625 481.5,470.48158 481.5,378.4375 481.5,286.39342 406.35658,211.25 314.3125,211.25 z"
       transform="matrix(0.93712593,0,0,0.93712593,60.217558,55.296801)" />
    <flowRoot
       transform="translate(147.24293,-70.789866)"
       style="font-size:40px;font-style:normal;font-variant:normal;font-weight:300;font-stretch:normal;text-align:start;line-height:125%;letter-spacing:0px;word-spacing:0px;writing-mode:lr-tb;text-anchor:start;fill:#2b71b4;fill-opacity:1;stroke:none;font-family:Open Sans;-inkscape-font-specification:Open Sans Light"
       id="flowRoot4256"
       xml:space="preserve"><flowRegion
         id="flowRegion4258"><rect
           style="font-size:40px;font-style:normal;font-variant:normal;font-weight:300;font-stretch:normal;text-align:start;line-height:125%;writing-mode:lr-tb;text-anchor:start;fill:#2b71b4;fill-opacity:1;font-family:Open Sans;-inkscape-font-specification:Open Sans Light"
           y="442.15353"
           x="387.92847"
           height="127.42176"
           width="186.88524"
           id="rect4260" /></flowRegion><flowPara
         id="flowPara4262">PROBLEMS</flowPara></flowRoot>    <g
       id="g3426"
       transform="matrix(0.29812009,0,0,0.29812009,122.39352,-151.33391)">
      <g
         transform="matrix(1.25,0,0,-1.25,228.66378,587.6815)"
         id="g3062">
        <path
           id="path3064"
           style="fill:#1b75bb;fill-opacity:1;fill-rule:nonzero;stroke:none"
           d="m 0,0 c 6.455,1.291 13.154,5.062 15.934,11.095 2.896,6.119 -0.151,13.059 -4.535,16.46 -9.027,7.244 -18.181,6.042 -17.888,6.353 -0.203,-0.294 7.925,1.309 17.428,-4.779 4.465,-2.915 9.011,-9.275 7.209,-16.422 C 16.423,5.68 9.744,0.801 3.047,-1.172 -10.83,-5.073 -22.436,0.123 -27.276,5.709 c -5.053,5.92 -3.892,10.702 -3.936,10.473 0.396,0.066 0.017,-0.58 1.936,-5.25 C -27.459,6.998 -19.092,-3.023 0,0"
           inkscape:connector-curvature="0" />
      </g>
      <g
         transform="matrix(1.25,0,0,-1.25,201.9914,529.84824)"
         id="g3066">
        <path
           id="path3068"
           style="fill:#1b75bb;fill-opacity:1;fill-rule:nonzero;stroke:none"
           d="m 0,0 c -14.043,-3.004 -28.3,-11.861 -33.981,-25.397 -5.9,-13.737 0.49,-28.848 9.731,-36.555 19.264,-16.13 39,-13.29 38.344,-13.932 0.514,0.664 -17.211,-2.588 -36.772,11.364 -9.198,6.723 -17.899,20.257 -14.231,35.007 3.302,14.604 16.801,25.403 30.903,29.853 29.257,8.819 53.823,-3.053 63.457,-15.052 10.16,-12.636 7.832,-22.434 8.162,-22.014 -0.616,-0.104 0.511,1.105 -3.077,11.489 -2.223,4.922 -6.698,12.115 -16.718,18.332 C 35.972,-0.996 20.047,4.252 0,0"
           inkscape:connector-curvature="0" />
      </g>
      <g
         transform="matrix(1.25,0,0,-1.25,304.78428,566.90762)"
         id="g3070">
        <path
           id="path3072"
           style="fill:#1b75bb;fill-opacity:1;fill-rule:nonzero;stroke:none"
           d="m 0,0 c -9.503,19.366 -30.93,31.464 -51.805,35.208 -21.121,3.981 -42.484,0.457 -58.433,-7.703 -16.222,-8.003 -26.156,-20.798 -30.1,-30.755 -3.853,-10.149 -3.111,-16.745 -3.36,-16.67 0.24,-0.059 -0.549,5.945 2.672,15.537 3.066,9.535 11.88,21.964 26.699,30.655 14.637,8.797 34.833,13.686 55.773,11.509 20.732,-2.015 42.9,-11.573 55.95,-29.621 13.366,-18.212 10.669,-41.276 0.83,-54.81 -9.66,-13.973 -22.705,-21.319 -33.235,-25.342 -21.659,-7.781 -34.179,-5.523 -34.009,-5.883 -0.046,0.585 1.319,-0.328 17.294,2.435 7.766,1.772 19.836,4.4 33.852,14.586 6.891,5.072 14.169,12.383 18.829,22.926 C 5.612,-27.568 6.741,-13.359 0,0"
           inkscape:connector-curvature="0" />
      </g>
      <g
         transform="matrix(1.25,0,0,-1.25,131.75215,668.82412)"
         id="g3074">
        <path
           id="path3076"
           style="fill:#1b75bb;fill-opacity:1;fill-rule:nonzero;stroke:none"
           d="m 0,0 c 26.918,-25.368 70.491,-30.082 99.317,-21.507 29.882,7.998 44.259,26.145 44.122,25.701 0.034,0.48 -12.526,-16.595 -40.464,-25.605 -26.933,-9.388 -69.146,-7.918 -98.812,15.403 -14.65,11.308 -23.625,26.26 -26.466,40.217 -2.973,14.041 -0.354,26.384 3.231,35.288 7.73,17.933 16.681,24.108 16.301,24.244 C -2.399,93.439 -3.64,93.033 -11.307,81.685 -14.824,75.937 -20.11,66.937 -21.637,52.388 -23.209,38.222 -18.847,17.302 0,0"
           inkscape:connector-curvature="0" />
      </g>
      <g
         transform="matrix(1.25,0,0,-1.25,330.21403,597.06387)"
         id="g3078">
        <path
           id="path3080"
           style="fill:#1b75bb;fill-opacity:1;fill-rule:nonzero;stroke:none"
           d="M 0,0 C -1.246,7.348 -4.492,15.634 -4.482,15.646 -4.556,15.676 0.24,8.769 1.689,1.09 3.248,-6.481 2.65,-10.774 2.402,-10.747 1.809,-10.769 1.584,-10.246 0,0"
           inkscape:connector-curvature="0" />
      </g>
      <g
         transform="matrix(1.25,0,0,-1.25,109.0739,683.13437)"
         id="g3082">
        <path
           id="path3084"
           style="fill:#1b75bb;fill-opacity:1;fill-rule:nonzero;stroke:none"
           d="m 0,0 c 13.579,-18.384 36.167,-30.845 54.459,-35.71 18.391,-5.155 32.043,-4.446 31.973,-4.658 0.05,0.198 -12.407,-0.891 -30.074,3.179 -17.497,3.898 -40.143,14.569 -55.059,32.563 -15.137,17.833 -18.634,36.772 -18.533,48.673 0.193,12.195 2.895,18.182 2.843,18.142 0.321,-0.068 0.045,-0.717 -1.06,-9.212 -0.397,-4.24 -0.799,-10.568 0.711,-19.574 C -13.203,24.494 -9.557,12.646 0,0"
           inkscape:connector-curvature="0" />
      </g>
      <g
         transform="matrix(1.25,0,0,-1.25,260.3984,749.70299)"
         id="g3086">
        <path
           id="path3088"
           style="fill:#1b75bb;fill-opacity:1;fill-rule:nonzero;stroke:none"
           d="m 0,0 c 11.834,3.482 24.065,9.249 32.55,15.169 8.633,5.727 13.618,11.138 13.688,11.04 C 46.73,26.124 27.571,5.86 2.843,-1.063 -21.278,-8.342 -35.478,-6.328 -35.338,-6.41 c -0.002,0.188 0.352,0.534 5.009,0.936 4.6,0.682 13.731,0.772 30.329,5.474"
           inkscape:connector-curvature="0" />
      </g>
      <g
         transform="matrix(1.25,0,0,-1.25,110.16403,573.64224)"
         id="g3090">
        <path
           id="path3092"
           style="fill:#1b75bb;fill-opacity:1;fill-rule:nonzero;stroke:none"
           d="m 0,0 c -13.411,-17.866 -20.729,-40.783 -19.796,-63.618 0.67,-22.843 9.752,-45.187 24.401,-62.096 14.587,-17.034 34.433,-28.651 54.893,-33.45 20.478,-4.908 41.334,-3.421 59.016,2.664 36.178,12.133 56.676,40.874 64.058,61.669 7.697,21.361 5.946,35.114 6.375,34.96 -0.372,0.117 1.233,-12.4 -5.209,-32.483 -6.179,-19.616 -23.676,-47.263 -56.764,-61.861 -32.001,-15.017 -79.694,-12.602 -113.131,16.959 -16.584,14.293 -28.895,34.558 -33.457,56.876 -4.582,22.274 -1.523,46.291 8.866,66.558 10.305,20.341 26.612,35.774 44.36,45.179 17.812,9.487 36.937,13.085 54.33,12.437 35.303,-1.274 62.154,-19.106 77.211,-37.112 15.492,-18.296 20.746,-36.489 22.848,-48.288 2.065,-12.001 1.338,-18.29 1.431,-18.265 -0.099,-0.002 -0.232,0.629 -0.522,5.487 -0.58,4.778 -0.864,14.127 -6.753,30.023 C 176.074,-9.19 163.302,14.846 130.719,31.395 114.625,39.287 93.396,44.342 69.36,41.04 45.642,37.816 18.769,25.217 0,0"
           inkscape:connector-curvature="0" />
      </g>
      <g
         transform="matrix(1.25,0,0,-1.25,270.94153,560.60749)"
         id="g3094">
        <path
           id="path3096"
           style="fill:#1b75bb;fill-opacity:1;fill-rule:nonzero;stroke:none"
           d="m 0,0 c 11.783,-1.282 24.214,-5.237 32.896,-9.938 8.75,-4.624 13.854,-9.365 13.894,-9.285 -0.035,-0.071 -5.011,3.924 -13.304,7.938 -8.25,4.085 -19.917,7.622 -31.471,9.129 -23.224,2.817 -36.022,-0.599 -36.002,0.018 -0.038,0.159 0.191,0.657 4.557,1.529 C -25.083,0.082 -16.469,1.708 0,0"
           inkscape:connector-curvature="0" />
      </g>
      <g
         transform="matrix(1.25,0,0,-1.25,304.95403,686.73787)"
         id="g3098">
        <path
           id="path3100"
           style="fill:#1b75bb;fill-opacity:1;fill-rule:nonzero;stroke:none"
           d="M 0,0 C -6.855,30.91 -30.412,60.322 -30.262,60.149 -30.593,60.28 -6.949,34.597 1.022,3.427 5.395,-11.711 6.591,-24.162 5.34,-32.477 4.196,-40.889 0.748,-44.458 0.699,-44.283 c -0.326,0.19 0.373,0.47 2.121,6.017 C 4.371,-32.735 5.69,-21.093 0,0"
           inkscape:connector-curvature="0" />
      </g>
      <g
         transform="matrix(1.25,0,0,-1.25,339.5914,654.31237)"
         id="g3102">
        <path
           id="path3104"
           style="fill:#1b75bb;fill-opacity:1;fill-rule:nonzero;stroke:none"
           d="m 0,0 c -1.324,6.509 -3.841,13.323 -6.738,18.074 -2.876,4.767 -5.848,7.449 -5.77,7.512 -0.08,-0.067 2.943,-2.16 6.209,-6.438 C -3.024,14.893 0.006,8.334 1.555,1.683 4.438,-11.696 3.25,-19.295 3.002,-19.248 2.176,-19.258 3.008,-18.303 0,0"
           inkscape:connector-curvature="0" />
      </g>
      <g
         transform="matrix(1.25,0,0,-1.25,273.69428,541.37537)"
         id="g3106">
        <path
           id="path3108"
           style="fill:#1b75bb;fill-opacity:1;fill-rule:nonzero;stroke:none"
           d="M 0,0 C -5.465,-1.056 -11.949,-2.233 -11.967,-2.245 -11.985,-2.258 -6.504,0.604 -0.906,1.734 4.641,2.876 7.766,3.063 7.808,2.71 7.864,2.284 7.656,1.461 0,0"
           inkscape:connector-curvature="0" />
      </g>
      <g
         transform="matrix(1.25,0,0,-1.25,233.63928,535.94199)"
         id="g3110">
        <path
           id="path3112"
           style="fill:#1b75bb;fill-opacity:1;fill-rule:nonzero;stroke:none"
           d="m 0,0 c -3.945,-7.935 -8.509,-17.364 -8.503,-17.368 -0.006,-0.008 2.489,9.333 6.436,17.422 3.699,8.221 7.662,11.838 7.843,11.54 C 6.336,11.084 5.603,10.935 0,0"
           inkscape:connector-curvature="0" />
      </g>
      <g
         transform="matrix(1.25,0,0,-1.25,210.24215,536.523)"
         id="g3114">
        <path
           id="path3116"
           style="fill:#1b75bb;fill-opacity:1;fill-rule:nonzero;stroke:none"
           d="M 0,0 C 4.761,-6.896 6.509,-16.59 6.223,-16.578 6.426,-16.479 3.266,-8.329 -1.166,-1.667 -5.475,5.084 -8.621,8.238 -8.264,8.551 -8.148,8.674 -6.569,9.464 0,0"
           inkscape:connector-curvature="0" />
      </g>
      <g
         transform="matrix(1.25,0,0,-1.25,172.21603,541.02987)"
         id="g3118">
        <path
           id="path3120"
           style="fill:#1b75bb;fill-opacity:1;fill-rule:nonzero;stroke:none"
           d="m 0,0 c 16.972,-2.716 33.27,-14.566 32.997,-14.697 0.153,0.149 -15.488,9.456 -31.781,12.548 -16.254,3.245 -25.343,0.474 -25.367,1.193 -0.03,0.185 0.126,0.546 3.222,1.231 C -17.883,0.882 -11.621,2.102 0,0"
           inkscape:connector-curvature="0" />
      </g>
      <g
         transform="matrix(1.25,0,0,-1.25,126.99753,570.1815)"
         id="g3122">
        <path
           id="path3124"
           style="fill:#1b75bb;fill-opacity:1;fill-rule:nonzero;stroke:none"
           d="M 0,0 C 16.46,7.734 37.764,7.82 37.628,7.73 37.681,7.729 18.446,6.111 2.308,-1.043 -13.77,-8.093 -21.21,-14.696 -21.541,-14.119 -21.477,-14.3 -22.349,-11.176 0,0"
           inkscape:connector-curvature="0" />
      </g>
      <g
         transform="matrix(1.25,0,0,-1.25,114.39615,616.74525)"
         id="g3126">
        <path
           id="path3128"
           style="fill:#1b75bb;fill-opacity:1;fill-rule:nonzero;stroke:none"
           d="m 0,0 c 14.413,14.79 33.895,26.413 49.919,32.36 16.009,6.178 28.088,7.315 28.053,7.288 0.025,0.023 -10.98,-1.46 -25.871,-7.443 C 37.188,26.406 18.78,15.526 4.132,1.448 -10.66,-12.585 -15.896,-28.249 -17.836,-38.475 c -1.916,-10.424 -1.416,-16.062 -1.743,-16.045 -0.091,-10e-4 -0.755,0.541 -0.53,8.268 0.187,3.846 0.678,9.554 3.084,17.523 C -14.588,-20.848 -9.935,-10.526 0,0"
           inkscape:connector-curvature="0" />
      </g>
      <g
         transform="matrix(1.25,0,0,-1.25,119.96253,715.23525)"
         id="g3130">
        <path
           id="path3132"
           style="fill:#1b75bb;fill-opacity:1;fill-rule:nonzero;stroke:none"
           d="M 0,0 C 0.684,14.178 8.324,28.884 8.198,28.823 8.295,28.811 2.988,14.812 1.943,1.188 0.933,-12.449 3.574,-19.725 2.969,-19.82 2.786,-19.863 2.422,-19.771 1.608,-17.272 0.785,-14.806 -0.502,-9.753 0,0"
           inkscape:connector-curvature="0" />
      </g>
      <g
         transform="matrix(1.25,0,0,-1.25,213.81515,569.55775)"
         id="g3134">
        <path
           id="path3136"
           style="fill:#1b75bb;fill-opacity:1;fill-rule:nonzero;stroke:none"
           d="M 0,0 z"
           inkscape:connector-curvature="0" />
      </g>
      <g
         transform="matrix(1.25,0,0,-1.25,197.7299,651.379)"
         id="g3138">
        <path
           id="path3140"
           style="fill:#1b75bb;fill-opacity:1;fill-rule:nonzero;stroke:none"
           d="m 0,0 c -5.006,-22.146 -9.642,-46.396 -10.976,-65.319 -1.534,-18.921 -0.138,-32.24 -0.07,-32.208 -0.058,-0.035 -1.825,12.135 -0.994,30.069 0.582,17.939 4.36,41.35 9.249,63.573 10.01,44.44 18.14,68.095 18.359,68.018 C 16.365,63.904 14.864,61.661 0,0"
           inkscape:connector-curvature="0" />
      </g>
      <g
         transform="matrix(1.25,0,0,-1.25,237.24403,623.40662)"
         id="g3142">
        <path
           id="path3144"
           style="fill:#1b75bb;fill-opacity:1;fill-rule:nonzero;stroke:none"
           d="M 0,0 C 7.111,-29.067 10.827,-63.905 10.596,-63.906 10.769,-63.874 5.73,-32.229 -1.188,-3.233 -7.88,25.816 -12.657,41.455 -12.245,41.567 -12.11,41.624 -9.815,40.548 0,0"
           inkscape:connector-curvature="0" />
      </g>
      <g
         transform="matrix(1.25,0,0,-1.25,247.50403,773.12099)"
         id="g3146">
        <path
           id="path3148"
           style="fill:#1b75bb;fill-opacity:1;fill-rule:nonzero;stroke:none"
           d="M 0,0 z"
           inkscape:connector-curvature="0" />
      </g>
    </g>
    <flowRoot
       xml:space="preserve"
       id="flowRoot3472"
       style="font-size:73.79576111px;font-style:normal;font-variant:normal;font-weight:300;font-stretch:normal;text-align:start;line-height:125%;letter-spacing:0px;word-spacing:0px;writing-mode:lr-tb;text-anchor:start;fill:#2b71b4;fill-opacity:1;stroke:none;font-family:Open Sans;-inkscape-font-specification:Open Sans Light"
       transform="matrix(0.29812009,0,0,0.29812009,-61.874268,-103.59227)"><flowRegion
         id="flowRegion3474"><rect
           id="rect3476"
           width="256.55914"
           height="98.927277"
           x="387.92847"
           y="442.15353"
           style="font-size:73.79576111px;font-style:normal;font-variant:normal;font-weight:300;font-stretch:normal;text-align:start;line-height:125%;writing-mode:lr-tb;text-anchor:start;fill:#2b71b4;fill-opacity:1;font-family:Open Sans;-inkscape-font-specification:Open Sans Light" /></flowRegion><flowPara
         id="flowPara3486">WORLD</flowPara></flowRoot>    <flowRoot
       transform="matrix(0.29812009,0,0,0.29812009,126.10265,-103.59227)"
       style="font-size:73.79576111px;font-style:normal;font-variant:normal;font-weight:300;font-stretch:normal;text-align:start;line-height:125%;letter-spacing:0px;word-spacing:0px;writing-mode:lr-tb;text-anchor:start;fill:#2b71b4;fill-opacity:1;stroke:none;font-family:Open Sans;-inkscape-font-specification:Open Sans Light"
       id="flowRoot4264"
       xml:space="preserve"><flowRegion
         id="flowRegion4266"><rect
           style="font-size:73.79576111px;font-style:normal;font-variant:normal;font-weight:300;font-stretch:normal;text-align:start;line-height:125%;writing-mode:lr-tb;text-anchor:start;fill:#2b71b4;fill-opacity:1;font-family:Open Sans;-inkscape-font-specification:Open Sans Light"
           y="442.15353"
           x="387.92847"
           height="106.19012"
           width="372.58856"
           id="rect4268" /></flowRegion><flowPara
         id="flowPara4270">PROBLEMS</flowPara></flowRoot>    <text
       xml:space="preserve"
       style="font-size:23.48047057px;font-style:normal;font-variant:normal;font-weight:300;font-stretch:normal;text-align:start;line-height:125%;letter-spacing:0px;word-spacing:0px;writing-mode:lr;text-anchor:start;fill:#2b71b4;fill-opacity:1;stroke:none;font-family:Open Sans;-inkscape-font-specification:Open Sans Light"
       id="text4282"
       sodipodi:linespacing="125%"
       transform="matrix(-0.29812009,0,0,-0.29812009,294.12946,164.30894)"><textPath
         xlink:href="#path4292"
         id="textPath4296"><tspan
   id="tspan4284"
   style="font-size:23.48047057px;font-style:normal;font-variant:normal;font-weight:300;font-stretch:normal;text-align:start;line-height:125%;writing-mode:lr;text-anchor:start;font-family:Open Sans;-inkscape-font-specification:Open Sans Light"><tspan
     id="tspan4286"
     y="552.18958"
     x="100.53065"
     style="font-size:23.48047057px;font-style:normal;font-variant:normal;font-weight:300;font-stretch:normal;text-align:start;line-height:125%;writing-mode:lr;text-anchor:start;font-family:Open Sans;-inkscape-font-specification:Open Sans Light">CLICK TO REFRESH</tspan></tspan></textPath></text>
  </g>
</svg>
