<?xml version="1.0" encoding="UTF-8" standalone="no"?>
<svg width="48px" height="48px" viewBox="0 0 48 48" version="1.1" xmlns="http://www.w3.org/2000/svg" xmlns:xlink="http://www.w3.org/1999/xlink" xmlns:sketch="http://www.bohemiancoding.com/sketch/ns">
    <title>Slice 1</title>
    <description>Created with Sketch (http://www.bohemiancoding.com/sketch)</description>
    <defs></defs>
    <g id="Page-1" stroke="none" stroke-width="1" fill="none" fill-rule="evenodd" sketch:type="MSPage">
        <g id="Shape-+-Shape" sketch:type="MSLayerGroup">
            <path d="M45.975,23.3377742 C44.7555,23.2316452 43.6755,24.1413226 43.566,25.3754516 C43.158,30.0178387 41.136,34.391871 37.869,37.6924839 C34.146,41.4555161 29.1945,43.5310968 23.928,43.5310968 C19.239,43.5310968 14.805,41.8785161 11.262,38.8599032 L13.6995,39.3162581 C13.836,39.3420323 13.9725,39.3541613 14.106,39.3541613 C15.156,39.3541613 16.0905,38.5976129 16.29,37.5150968 C16.509,36.2946129 15.7125,35.1256774 14.508,34.8982581 L4.896,33.1031613 C4.842,33.0925484 4.791,33.0970968 4.7385,33.088 C4.6545,33.0789032 4.575,33.0682903 4.491,33.0682903 C4.4115,33.0682903 4.335,33.0789032 4.257,33.088 C4.2015,33.0955806 4.146,33.0910323 4.0905,33.1031613 C4.077,33.1046774 4.065,33.1107419 4.0545,33.1137742 C3.9675,33.1304516 3.888,33.1592581 3.807,33.1850323 C3.7485,33.2062581 3.69,33.2199032 3.6345,33.2441613 C3.555,33.2775161 3.4815,33.3214839 3.4095,33.3624194 C3.36,33.3927419 3.3075,33.4154839 3.2565,33.4488387 C3.18,33.5019032 3.1095,33.5655806 3.039,33.6262258 C3,33.6580645 2.961,33.6853548 2.9265,33.7187097 C2.8545,33.7899677 2.7945,33.8718387 2.733,33.9491613 C2.706,33.9825161 2.6775,34.0128387 2.6535,34.0477097 C2.604,34.1204839 2.5665,34.2023548 2.5245,34.2811935 C2.499,34.3312258 2.469,34.3797419 2.445,34.4358387 C2.4195,34.498 2.4045,34.5662258 2.382,34.6329355 C2.3565,34.7102581 2.331,34.7875806 2.316,34.8649032 C2.313,34.8785484 2.307,34.8891613 2.304,34.8997742 C2.295,34.9543548 2.2965,35.0089355 2.292,35.062 C2.283,35.1453871 2.271,35.2227097 2.271,35.3076129 C2.271,35.391 2.283,35.4713548 2.292,35.5517097 C2.2965,35.6062903 2.295,35.6593548 2.304,35.7154516 L4.0815,45.4292903 C4.2795,46.5102903 5.214,47.2683548 6.264,47.2683548 C6.3975,47.2683548 6.5325,47.2547097 6.6705,47.2304516 C7.8765,47.0045484 8.6745,45.8325806 8.4525,44.6136129 L7.9515,41.8739677 C12.369,45.8295484 17.9775,48.0142903 23.928,48.0142903 C30.3825,48.0142903 36.4485,45.4747742 41.01,40.8627097 C45.012,36.8176774 47.49,31.4581613 47.991,25.768129 C48.099,24.5385484 47.1975,23.4469355 45.975,23.3377742 L45.975,23.3377742 Z" id="Shape" fill="#333333" sketch:type="MSShapeGroup"></path>
            <path d="M4.434,23.1421935 C4.8405,18.4998065 6.864,14.1272903 10.1295,10.8251613 C13.8525,7.0606129 18.8025,4.98654839 24.0705,4.98654839 C28.761,4.98654839 33.1935,6.63912903 36.738,9.65774194 L34.3005,9.2013871 C33.087,8.97548387 31.935,9.78358065 31.713,11.0010323 C31.491,12.2215161 32.286,13.3919677 33.4935,13.6193871 L43.104,15.4144839 L43.107,15.4144839 C43.236,15.4402581 43.371,15.4523871 43.506,15.4523871 L43.509,15.4523871 L43.5105,15.4523871 C43.6455,15.4523871 43.779,15.4387419 43.9095,15.4144839 L43.9125,15.4144839 C43.9215,15.4129677 43.929,15.4084194 43.9395,15.4069032 C44.067,15.381129 44.19,15.3447419 44.31,15.2992581 C44.3565,15.2795484 44.4015,15.2568065 44.448,15.2340645 C44.5245,15.1976774 44.601,15.1597742 44.673,15.1142903 C44.721,15.0824516 44.769,15.0506129 44.814,15.0172581 C44.8785,14.9702581 44.94,14.9202258 44.9985,14.864129 C45.039,14.8277419 45.0795,14.7883226 45.117,14.7473871 C45.174,14.6867419 45.2265,14.6215484 45.279,14.5548387 C45.309,14.5139032 45.3405,14.4714516 45.3675,14.429 C45.414,14.3562258 45.456,14.2773871 45.4935,14.2000645 C45.5175,14.1530645 45.54,14.1075806 45.561,14.0605806 C45.5925,13.9832581 45.615,13.9029032 45.6375,13.8195161 C45.6555,13.7649355 45.672,13.711871 45.684,13.6542581 C45.687,13.6406129 45.69,13.63 45.693,13.617871 C45.705,13.5632903 45.702,13.5102258 45.708,13.4556452 C45.717,13.3752903 45.7275,13.2949355 45.7275,13.2100323 C45.7275,13.125129 45.717,13.0462903 45.708,12.9644194 C45.702,12.9113548 45.705,12.8567742 45.693,12.8021935 L43.917,3.08835484 C43.695,1.8693871 42.54,1.06129032 41.3295,1.28719355 C40.1205,1.51158065 39.3255,2.68354839 39.5475,3.90554839 L40.047,6.64216129 C35.631,2.68809677 30.0225,0.503354839 24.0705,0.503354839 C17.6175,0.503354839 11.55,3.04135484 6.9885,7.65493548 C2.985,11.6999677 0.507,17.061 0.009,22.7495161 C-0.099,23.9866774 0.8025,25.0752581 2.025,25.1844194 C2.0925,25.1904839 2.16,25.1950323 2.2245,25.1950323 C3.363,25.1889677 4.3335,24.3096129 4.434,23.1421935 L4.434,23.1421935 Z" id="Shape" fill="#FAFAFA" sketch:type="MSShapeGroup"></path>
        </g>
    </g>
</svg>