<?xml version="1.0" encoding="UTF-8" standalone="no"?>
<!-- Created with Inkscape (http://www.inkscape.org/) -->

<svg
   xmlns:dc="http://purl.org/dc/elements/1.1/"
   xmlns:cc="http://creativecommons.org/ns#"
   xmlns:rdf="http://www.w3.org/1999/02/22-rdf-syntax-ns#"
   xmlns:svg="http://www.w3.org/2000/svg"
   xmlns="http://www.w3.org/2000/svg"
   version="1.2"
   width="360"
   height="90"
   id="svg2">
  <defs
     id="defs4">
    <clipPath
       id="clipPath3018">
      <path
         d="M 0,792 612,792 612,0 0,0 0,792 z"
         id="path3020" />
    </clipPath>
  </defs>
  <metadata
     id="metadata7">
    <rdf:RDF>
      <cc:Work
         rdf:about="">
        <dc:format>image/svg+xml</dc:format>
        <dc:type
           rdf:resource="http://purl.org/dc/dcmitype/StillImage" />
        <dc:title></dc:title>
      </cc:Work>
    </rdf:RDF>
  </metadata>
  <g
     id="layer1">
    <path
       d="m 314.3125,211.25 c -92.04408,0 -167.1875,75.14342 -167.1875,167.1875 0,92.04408 75.14342,167.1875 167.1875,167.1875 C 406.35658,545.625 481.5,470.48158 481.5,378.4375 481.5,286.39342 406.35658,211.25 314.3125,211.25 z"
       transform="matrix(0.93712593,0,0,0.93712593,60.217558,55.296801)"
       id="path4292"
       style="fill:#d7d8e3;fill-opacity:1;display:none" />
    <flowRoot
       transform="translate(147.24293,-70.789866)"
       id="flowRoot4256"
       xml:space="preserve"
       style="font-size:40px;font-style:normal;font-variant:normal;font-weight:300;font-stretch:normal;text-align:start;line-height:125%;letter-spacing:0px;word-spacing:0px;writing-mode:lr-tb;text-anchor:start;fill:#2b71b4;fill-opacity:1;stroke:none;font-family:Open Sans;-inkscape-font-specification:Open Sans Light"><flowRegion
         id="flowRegion4258"><rect
           width="186.88524"
           height="127.42176"
           x="387.92847"
           y="442.15353"
           id="rect4260"
           style="font-size:40px;font-style:normal;font-variant:normal;font-weight:300;font-stretch:normal;text-align:start;line-height:125%;writing-mode:lr-tb;text-anchor:start;fill:#2b71b4;fill-opacity:1;font-family:Open Sans;-inkscape-font-specification:Open Sans Light" /></flowRegion><flowPara
         id="flowPara4262">PROBLEMS</flowPara></flowRoot>    <g
       transform="matrix(0.29812009,0,0,0.29812009,122.39352,-151.33391)"
       id="g3426">
      <g
         transform="matrix(1.25,0,0,-1.25,228.66378,587.6815)"
         id="g3062">
        <path
           d="m 0,0 c 6.455,1.291 13.154,5.062 15.934,11.095 2.896,6.119 -0.151,13.059 -4.535,16.46 -9.027,7.244 -18.181,6.042 -17.888,6.353 -0.203,-0.294 7.925,1.309 17.428,-4.779 4.465,-2.915 9.011,-9.275 7.209,-16.422 C 16.423,5.68 9.744,0.801 3.047,-1.172 -10.83,-5.073 -22.436,0.123 -27.276,5.709 c -5.053,5.92 -3.892,10.702 -3.936,10.473 0.396,0.066 0.017,-0.58 1.936,-5.25 C -27.459,6.998 -19.092,-3.023 0,0"
           id="path3064"
           style="fill:#1b75bb;fill-opacity:1;fill-rule:nonzero;stroke:none" />
      </g>
      <g
         transform="matrix(1.25,0,0,-1.25,201.9914,529.84824)"
         id="g3066">
        <path
           d="m 0,0 c -14.043,-3.004 -28.3,-11.861 -33.981,-25.397 -5.9,-13.737 0.49,-28.848 9.731,-36.555 19.264,-16.13 39,-13.29 38.344,-13.932 0.514,0.664 -17.211,-2.588 -36.772,11.364 -9.198,6.723 -17.899,20.257 -14.231,35.007 3.302,14.604 16.801,25.403 30.903,29.853 29.257,8.819 53.823,-3.053 63.457,-15.052 10.16,-12.636 7.832,-22.434 8.162,-22.014 -0.616,-0.104 0.511,1.105 -3.077,11.489 -2.223,4.922 -6.698,12.115 -16.718,18.332 C 35.972,-0.996 20.047,4.252 0,0"
           id="path3068"
           style="fill:#1b75bb;fill-opacity:1;fill-rule:nonzero;stroke:none" />
      </g>
      <g
         transform="matrix(1.25,0,0,-1.25,304.78428,566.90762)"
         id="g3070">
        <path
           d="m 0,0 c -9.503,19.366 -30.93,31.464 -51.805,35.208 -21.121,3.981 -42.484,0.457 -58.433,-7.703 -16.222,-8.003 -26.156,-20.798 -30.1,-30.755 -3.853,-10.149 -3.111,-16.745 -3.36,-16.67 0.24,-0.059 -0.549,5.945 2.672,15.537 3.066,9.535 11.88,21.964 26.699,30.655 14.637,8.797 34.833,13.686 55.773,11.509 20.732,-2.015 42.9,-11.573 55.95,-29.621 13.366,-18.212 10.669,-41.276 0.83,-54.81 -9.66,-13.973 -22.705,-21.319 -33.235,-25.342 -21.659,-7.781 -34.179,-5.523 -34.009,-5.883 -0.046,0.585 1.319,-0.328 17.294,2.435 7.766,1.772 19.836,4.4 33.852,14.586 6.891,5.072 14.169,12.383 18.829,22.926 C 5.612,-27.568 6.741,-13.359 0,0"
           id="path3072"
           style="fill:#1b75bb;fill-opacity:1;fill-rule:nonzero;stroke:none" />
      </g>
      <g
         transform="matrix(1.25,0,0,-1.25,131.75215,668.82412)"
         id="g3074">
        <path
           d="m 0,0 c 26.918,-25.368 70.491,-30.082 99.317,-21.507 29.882,7.998 44.259,26.145 44.122,25.701 0.034,0.48 -12.526,-16.595 -40.464,-25.605 -26.933,-9.388 -69.146,-7.918 -98.812,15.403 -14.65,11.308 -23.625,26.26 -26.466,40.217 -2.973,14.041 -0.354,26.384 3.231,35.288 7.73,17.933 16.681,24.108 16.301,24.244 C -2.399,93.439 -3.64,93.033 -11.307,81.685 -14.824,75.937 -20.11,66.937 -21.637,52.388 -23.209,38.222 -18.847,17.302 0,0"
           id="path3076"
           style="fill:#1b75bb;fill-opacity:1;fill-rule:nonzero;stroke:none" />
      </g>
      <g
         transform="matrix(1.25,0,0,-1.25,330.21403,597.06387)"
         id="g3078">
        <path
           d="M 0,0 C -1.246,7.348 -4.492,15.634 -4.482,15.646 -4.556,15.676 0.24,8.769 1.689,1.09 3.248,-6.481 2.65,-10.774 2.402,-10.747 1.809,-10.769 1.584,-10.246 0,0"
           id="path3080"
           style="fill:#1b75bb;fill-opacity:1;fill-rule:nonzero;stroke:none" />
      </g>
      <g
         transform="matrix(1.25,0,0,-1.25,109.0739,683.13437)"
         id="g3082">
        <path
           d="m 0,0 c 13.579,-18.384 36.167,-30.845 54.459,-35.71 18.391,-5.155 32.043,-4.446 31.973,-4.658 0.05,0.198 -12.407,-0.891 -30.074,3.179 -17.497,3.898 -40.143,14.569 -55.059,32.563 -15.137,17.833 -18.634,36.772 -18.533,48.673 0.193,12.195 2.895,18.182 2.843,18.142 0.321,-0.068 0.045,-0.717 -1.06,-9.212 -0.397,-4.24 -0.799,-10.568 0.711,-19.574 C -13.203,24.494 -9.557,12.646 0,0"
           id="path3084"
           style="fill:#1b75bb;fill-opacity:1;fill-rule:nonzero;stroke:none" />
      </g>
      <g
         transform="matrix(1.25,0,0,-1.25,260.3984,749.70299)"
         id="g3086">
        <path
           d="m 0,0 c 11.834,3.482 24.065,9.249 32.55,15.169 8.633,5.727 13.618,11.138 13.688,11.04 C 46.73,26.124 27.571,5.86 2.843,-1.063 -21.278,-8.342 -35.478,-6.328 -35.338,-6.41 c -0.002,0.188 0.352,0.534 5.009,0.936 4.6,0.682 13.731,0.772 30.329,5.474"
           id="path3088"
           style="fill:#1b75bb;fill-opacity:1;fill-rule:nonzero;stroke:none" />
      </g>
      <g
         transform="matrix(1.25,0,0,-1.25,110.16403,573.64224)"
         id="g3090">
        <path
           d="m 0,0 c -13.411,-17.866 -20.729,-40.783 -19.796,-63.618 0.67,-22.843 9.752,-45.187 24.401,-62.096 14.587,-17.034 34.433,-28.651 54.893,-33.45 20.478,-4.908 41.334,-3.421 59.016,2.664 36.178,12.133 56.676,40.874 64.058,61.669 7.697,21.361 5.946,35.114 6.375,34.96 -0.372,0.117 1.233,-12.4 -5.209,-32.483 -6.179,-19.616 -23.676,-47.263 -56.764,-61.861 -32.001,-15.017 -79.694,-12.602 -113.131,16.959 -16.584,14.293 -28.895,34.558 -33.457,56.876 -4.582,22.274 -1.523,46.291 8.866,66.558 10.305,20.341 26.612,35.774 44.36,45.179 17.812,9.487 36.937,13.085 54.33,12.437 35.303,-1.274 62.154,-19.106 77.211,-37.112 15.492,-18.296 20.746,-36.489 22.848,-48.288 2.065,-12.001 1.338,-18.29 1.431,-18.265 -0.099,-0.002 -0.232,0.629 -0.522,5.487 -0.58,4.778 -0.864,14.127 -6.753,30.023 C 176.074,-9.19 163.302,14.846 130.719,31.395 114.625,39.287 93.396,44.342 69.36,41.04 45.642,37.816 18.769,25.217 0,0"
           id="path3092"
           style="fill:#1b75bb;fill-opacity:1;fill-rule:nonzero;stroke:none" />
      </g>
      <g
         transform="matrix(1.25,0,0,-1.25,270.94153,560.60749)"
         id="g3094">
        <path
           d="m 0,0 c 11.783,-1.282 24.214,-5.237 32.896,-9.938 8.75,-4.624 13.854,-9.365 13.894,-9.285 -0.035,-0.071 -5.011,3.924 -13.304,7.938 -8.25,4.085 -19.917,7.622 -31.471,9.129 -23.224,2.817 -36.022,-0.599 -36.002,0.018 -0.038,0.159 0.191,0.657 4.557,1.529 C -25.083,0.082 -16.469,1.708 0,0"
           id="path3096"
           style="fill:#1b75bb;fill-opacity:1;fill-rule:nonzero;stroke:none" />
      </g>
      <g
         transform="matrix(1.25,0,0,-1.25,304.95403,686.73787)"
         id="g3098">
        <path
           d="M 0,0 C -6.855,30.91 -30.412,60.322 -30.262,60.149 -30.593,60.28 -6.949,34.597 1.022,3.427 5.395,-11.711 6.591,-24.162 5.34,-32.477 4.196,-40.889 0.748,-44.458 0.699,-44.283 c -0.326,0.19 0.373,0.47 2.121,6.017 C 4.371,-32.735 5.69,-21.093 0,0"
           id="path3100"
           style="fill:#1b75bb;fill-opacity:1;fill-rule:nonzero;stroke:none" />
      </g>
      <g
         transform="matrix(1.25,0,0,-1.25,339.5914,654.31237)"
         id="g3102">
        <path
           d="m 0,0 c -1.324,6.509 -3.841,13.323 -6.738,18.074 -2.876,4.767 -5.848,7.449 -5.77,7.512 -0.08,-0.067 2.943,-2.16 6.209,-6.438 C -3.024,14.893 0.006,8.334 1.555,1.683 4.438,-11.696 3.25,-19.295 3.002,-19.248 2.176,-19.258 3.008,-18.303 0,0"
           id="path3104"
           style="fill:#1b75bb;fill-opacity:1;fill-rule:nonzero;stroke:none" />
      </g>
      <g
         transform="matrix(1.25,0,0,-1.25,273.69428,541.37537)"
         id="g3106">
        <path
           d="M 0,0 C -5.465,-1.056 -11.949,-2.233 -11.967,-2.245 -11.985,-2.258 -6.504,0.604 -0.906,1.734 4.641,2.876 7.766,3.063 7.808,2.71 7.864,2.284 7.656,1.461 0,0"
           id="path3108"
           style="fill:#1b75bb;fill-opacity:1;fill-rule:nonzero;stroke:none" />
      </g>
      <g
         transform="matrix(1.25,0,0,-1.25,233.63928,535.94199)"
         id="g3110">
        <path
           d="m 0,0 c -3.945,-7.935 -8.509,-17.364 -8.503,-17.368 -0.006,-0.008 2.489,9.333 6.436,17.422 3.699,8.221 7.662,11.838 7.843,11.54 C 6.336,11.084 5.603,10.935 0,0"
           id="path3112"
           style="fill:#1b75bb;fill-opacity:1;fill-rule:nonzero;stroke:none" />
      </g>
      <g
         transform="matrix(1.25,0,0,-1.25,210.24215,536.523)"
         id="g3114">
        <path
           d="M 0,0 C 4.761,-6.896 6.509,-16.59 6.223,-16.578 6.426,-16.479 3.266,-8.329 -1.166,-1.667 -5.475,5.084 -8.621,8.238 -8.264,8.551 -8.148,8.674 -6.569,9.464 0,0"
           id="path3116"
           style="fill:#1b75bb;fill-opacity:1;fill-rule:nonzero;stroke:none" />
      </g>
      <g
         transform="matrix(1.25,0,0,-1.25,172.21603,541.02987)"
         id="g3118">
        <path
           d="m 0,0 c 16.972,-2.716 33.27,-14.566 32.997,-14.697 0.153,0.149 -15.488,9.456 -31.781,12.548 -16.254,3.245 -25.343,0.474 -25.367,1.193 -0.03,0.185 0.126,0.546 3.222,1.231 C -17.883,0.882 -11.621,2.102 0,0"
           id="path3120"
           style="fill:#1b75bb;fill-opacity:1;fill-rule:nonzero;stroke:none" />
      </g>
      <g
         transform="matrix(1.25,0,0,-1.25,126.99753,570.1815)"
         id="g3122">
        <path
           d="M 0,0 C 16.46,7.734 37.764,7.82 37.628,7.73 37.681,7.729 18.446,6.111 2.308,-1.043 -13.77,-8.093 -21.21,-14.696 -21.541,-14.119 -21.477,-14.3 -22.349,-11.176 0,0"
           id="path3124"
           style="fill:#1b75bb;fill-opacity:1;fill-rule:nonzero;stroke:none" />
      </g>
      <g
         transform="matrix(1.25,0,0,-1.25,114.39615,616.74525)"
         id="g3126">
        <path
           d="m 0,0 c 14.413,14.79 33.895,26.413 49.919,32.36 16.009,6.178 28.088,7.315 28.053,7.288 0.025,0.023 -10.98,-1.46 -25.871,-7.443 C 37.188,26.406 18.78,15.526 4.132,1.448 -10.66,-12.585 -15.896,-28.249 -17.836,-38.475 c -1.916,-10.424 -1.416,-16.062 -1.743,-16.045 -0.091,-10e-4 -0.755,0.541 -0.53,8.268 0.187,3.846 0.678,9.554 3.084,17.523 C -14.588,-20.848 -9.935,-10.526 0,0"
           id="path3128"
           style="fill:#1b75bb;fill-opacity:1;fill-rule:nonzero;stroke:none" />
      </g>
      <g
         transform="matrix(1.25,0,0,-1.25,119.96253,715.23525)"
         id="g3130">
        <path
           d="M 0,0 C 0.684,14.178 8.324,28.884 8.198,28.823 8.295,28.811 2.988,14.812 1.943,1.188 0.933,-12.449 3.574,-19.725 2.969,-19.82 2.786,-19.863 2.422,-19.771 1.608,-17.272 0.785,-14.806 -0.502,-9.753 0,0"
           id="path3132"
           style="fill:#1b75bb;fill-opacity:1;fill-rule:nonzero;stroke:none" />
      </g>
      <g
         transform="matrix(1.25,0,0,-1.25,213.81515,569.55775)"
         id="g3134">
        <path
           d="M 0,0 z"
           id="path3136"
           style="fill:#1b75bb;fill-opacity:1;fill-rule:nonzero;stroke:none" />
      </g>
      <g
         transform="matrix(1.25,0,0,-1.25,197.7299,651.379)"
         id="g3138">
        <path
           d="m 0,0 c -5.006,-22.146 -9.642,-46.396 -10.976,-65.319 -1.534,-18.921 -0.138,-32.24 -0.07,-32.208 -0.058,-0.035 -1.825,12.135 -0.994,30.069 0.582,17.939 4.36,41.35 9.249,63.573 10.01,44.44 18.14,68.095 18.359,68.018 C 16.365,63.904 14.864,61.661 0,0"
           id="path3140"
           style="fill:#1b75bb;fill-opacity:1;fill-rule:nonzero;stroke:none" />
      </g>
      <g
         transform="matrix(1.25,0,0,-1.25,237.24403,623.40662)"
         id="g3142">
        <path
           d="M 0,0 C 7.111,-29.067 10.827,-63.905 10.596,-63.906 10.769,-63.874 5.73,-32.229 -1.188,-3.233 -7.88,25.816 -12.657,41.455 -12.245,41.567 -12.11,41.624 -9.815,40.548 0,0"
           id="path3144"
           style="fill:#1b75bb;fill-opacity:1;fill-rule:nonzero;stroke:none" />
      </g>
      <g
         transform="matrix(1.25,0,0,-1.25,247.50403,773.12099)"
         id="g3146">
        <path
           d="M 0,0 z"
           id="path3148"
           style="fill:#1b75bb;fill-opacity:1;fill-rule:nonzero;stroke:none" />
      </g>
    </g>
    <g
       transform="matrix(0.29812009,0,0,0.29812009,-61.874268,-103.59227)"
       id="flowRoot3472"
       style="font-size:73.79576111px;font-style:normal;font-variant:normal;font-weight:300;font-stretch:normal;text-align:start;line-height:125%;letter-spacing:0px;word-spacing:0px;writing-mode:lr-tb;text-anchor:start;fill:#2b71b4;fill-opacity:1;stroke:none;font-family:Open Sans;-inkscape-font-specification:Open Sans Light">
      <path
         d="m 437.37489,514.55627 -3.02677,0 -11.56663,-40.64532 c -0.96091,-3.33903 -1.68157,-6.07754 -2.16198,-8.21555 -0.38439,2.08997 -0.93689,4.49217 -1.65752,7.20662 -0.69667,2.71453 -4.56422,16.59927 -11.60266,41.65425 l -3.09884,0 -14.4853,-52.68037 3.85554,0 9.22447,33.94316 c 0.36031,1.36928 0.69662,2.64245 1.00892,3.81951 0.31227,1.15307 0.58853,2.24608 0.82877,3.27901 0.26422,1.00894 0.49243,1.99384 0.68462,2.95471 0.21618,0.93687 0.40836,1.88574 0.57653,2.84662 0.57651,-3.26699 1.80164,-8.22754 3.67538,-14.88167 l 9.00827,-31.96134 4.07174,0 10.55769,36.68168 c 1.22508,4.22789 2.10189,7.63902 2.63042,10.23339 0.31224,-1.72958 0.7086,-3.56726 1.18909,-5.51306 0.50441,-1.94577 4.21582,-15.74643 11.13422,-41.40201 l 3.71141,0 -14.55737,52.68037"
         id="path4844" />
      <path
         d="m 504.82883,488.14402 c -5e-5,8.35969 -2.08997,14.97776 -6.26976,19.85423 -4.17987,4.85245 -9.94516,7.27868 -17.29588,7.27868 -7.32675,0 -13.08002,-2.42623 -17.25985,-7.27868 -4.17984,-4.87647 -6.26976,-11.51856 -6.26975,-19.9263 -10e-6,-8.38366 2.10192,-14.97771 6.30579,-19.78216 4.22786,-4.82839 9.99315,-7.2426 17.29588,-7.24266 7.35071,6e-5 13.10399,2.42628 17.25985,7.27869 4.15576,4.82847 6.23367,11.43453 6.23372,19.8182 m -43.09557,0 c -10e-6,7.54294 1.68153,13.3803 5.04463,17.51208 3.36307,4.10777 8.1915,6.16166 14.4853,6.16165 6.34179,1e-5 11.18223,-2.04187 14.52134,-6.12562 3.36304,-4.08374 5.04458,-9.9331 5.04463,-17.54811 -5e-5,-7.59094 -1.68159,-13.40427 -5.04463,-17.44002 -3.33911,-4.05968 -8.15553,-6.08954 -14.44927,-6.08959 -6.26978,5e-5 -11.11022,2.04192 -14.52133,6.12563 -3.38713,4.08378 -5.08068,9.88511 -5.08067,17.40398"
         id="path4846" />
      <path
         d="m 520.57529,491.60319 0,22.95308 -3.67537,0 0,-52.68037 12.53951,0 c 6.53398,5e-5 11.36241,1.21316 14.4853,3.63934 3.12283,2.40225 4.68427,6.02958 4.68431,10.88199 -4e-5,3.53128 -0.9369,6.51001 -2.81059,8.93621 -1.84973,2.42625 -4.67232,4.16785 -8.46777,5.22479 l 14.30513,23.99804 -4.39603,0 -13.58448,-22.95308 -13.08001,0 m 0,-3.17091 10.05324,0 c 4.44405,3e-5 7.89121,-0.98488 10.34149,-2.95471 2.45022,-1.9938 3.67534,-4.92449 3.67538,-8.79208 -4e-5,-4.01164 -1.20114,-6.93031 -3.60331,-8.75604 -2.40224,-1.82562 -6.31783,-2.73846 -11.74679,-2.73851 l -8.72001,0 0,23.24134"
         id="path4848" />
      <path
         d="m 560.71614,514.55627 0,-52.68037 3.67538,0 0,49.22119 25.11506,0 0,3.45918 -28.79044,0"
         id="path4850" />
      <path
         d="m 638.61968,487.71162 c -4e-5,8.84013 -2.31817,15.53027 -6.95438,20.07043 -4.6363,4.51615 -11.44654,6.77422 -20.43076,6.77422 l -12.61158,0 0,-52.68037 14.23307,0 c 8.40769,5e-5 14.79755,2.19806 19.1696,6.59405 4.39599,4.39608 6.59401,10.80996 6.59405,19.24167 m -3.99967,0.14413 c -4e-5,-7.54289 -1.92181,-13.21209 -5.76529,-17.00762 -3.81954,-3.81946 -9.4407,-5.72921 -16.86349,-5.72926 l -9.6929,0 0,46.19442 8.72001,0 c 15.73441,0 23.60163,-7.81917 23.60167,-23.45754"
         id="path4852" />
    </g>
    <g
       transform="matrix(0.29812009,0,0,0.29812009,126.10265,-103.59227)"
       id="flowRoot4264"
       style="font-size:73.79576111px;font-style:normal;font-variant:normal;font-weight:300;font-stretch:normal;text-align:start;line-height:125%;letter-spacing:0px;word-spacing:0px;writing-mode:lr-tb;text-anchor:start;fill:#2b71b4;fill-opacity:1;stroke:none;font-family:Open Sans;-inkscape-font-specification:Open Sans Light">
      <path
         d="m 427.10547,477.00979 c -4e-5,5.09271 -1.72963,8.99629 -5.18877,11.71076 -3.45921,2.71451 -8.3597,4.07176 -14.7015,4.07173 l -8.14348,0 0,21.76399 -3.67537,0 0,-52.68037 12.89984,0 c 12.53949,5e-5 18.80924,5.04468 18.80928,15.13389 m -28.03375,12.61158 7.24265,0 c 5.93343,3e-5 10.22136,-0.97286 12.86382,-2.91868 2.64239,-1.96978 3.9636,-5.1527 3.96364,-9.54877 -4e-5,-4.05968 -1.24919,-7.06244 -3.74745,-9.00827 -2.49832,-1.96976 -6.36587,-2.95466 -11.60265,-2.95471 l -8.72001,0 0,24.43043"
         id="path4798" />
      <path
         d="m 442.31143,491.60319 0,22.95308 -3.67538,0 0,-52.68037 12.53952,0 c 6.53397,5e-5 11.3624,1.21316 14.4853,3.63934 3.12283,2.40225 4.68426,6.02958 4.6843,10.88199 -4e-5,3.53128 -0.9369,6.51001 -2.81058,8.93621 -1.84973,2.42625 -4.67232,4.16785 -8.46778,5.22479 l 14.30514,23.99804 -4.39604,0 -13.58447,-22.95308 -13.08001,0 m 0,-3.17091 10.05323,0 c 4.44405,3e-5 7.89122,-0.98488 10.34149,-2.95471 2.45022,-1.9938 3.67534,-4.92449 3.67538,-8.79208 -4e-5,-4.01164 -1.20114,-6.93031 -3.60331,-8.75604 -2.40223,-1.82562 -6.31783,-2.73846 -11.74679,-2.73851 l -8.72,0 0,23.24134"
         id="path4800" />
      <path
         d="m 526.73695,488.14402 c -5e-5,8.35969 -2.08997,14.97776 -6.26976,19.85423 -4.17988,4.85245 -9.94516,7.27868 -17.29588,7.27868 -7.32675,0 -13.08002,-2.42623 -17.25985,-7.27868 -4.17984,-4.87647 -6.26976,-11.51856 -6.26975,-19.9263 -10e-6,-8.38366 2.10192,-14.97771 6.30579,-19.78216 4.22786,-4.82839 9.99315,-7.2426 17.29588,-7.24266 7.35071,6e-5 13.10399,2.42628 17.25985,7.27869 4.15576,4.82847 6.23367,11.43453 6.23372,19.8182 m -43.09557,0 c -1e-5,7.54294 1.68153,13.3803 5.04463,17.51208 3.36307,4.10777 8.1915,6.16166 14.4853,6.16165 6.34179,1e-5 11.18223,-2.04187 14.52134,-6.12562 3.36304,-4.08374 5.04458,-9.9331 5.04463,-17.54811 -5e-5,-7.59094 -1.68159,-13.40427 -5.04463,-17.44002 -3.33911,-4.05968 -8.15553,-6.08954 -14.44927,-6.08959 -6.26978,5e-5 -11.11022,2.04192 -14.52134,6.12563 -3.38712,4.08378 -5.08067,9.88511 -5.08066,17.40398"
         id="path4802" />
      <path
         d="m 538.80803,461.8759 14.44927,0 c 6.50995,5e-5 11.29033,1.10506 14.34117,3.31504 3.05076,2.21008 4.57616,5.54914 4.5762,10.0172 -4e-5,3.05084 -0.9369,5.59717 -2.81058,7.63901 -1.84974,2.01788 -4.56423,3.31507 -8.14348,3.89158 l 0,0.21619 c 4.20383,0.6246 7.29066,1.95783 9.2605,3.99968 1.99379,2.01787 2.99071,4.84046 2.99075,8.46777 -4e-5,4.85247 -1.60952,8.58789 -4.82843,11.20629 -3.21899,2.61841 -7.78318,3.92761 -13.69258,3.92761 l -16.14282,0 0,-52.68037 m 3.67538,23.45754 11.60265,0 c 4.94852,2e-5 8.53981,-0.81672 10.77389,-2.45025 2.25804,-1.65749 3.38708,-4.23986 3.38711,-7.74712 -3e-5,-3.50718 -1.2732,-6.05351 -3.8195,-7.63901 -2.52235,-1.58541 -6.29381,-2.37814 -11.31439,-2.37819 l -10.62976,0 0,20.21457 m 0,3.24297 0,22.73688 12.39538,0 c 9.75292,0 14.62939,-3.96363 14.62943,-11.89092 -4e-5,-7.23061 -5.14075,-10.84593 -15.42216,-10.84596 l -11.60265,0"
         id="path4804" />
      <path
         d="m 585.07451,514.55627 0,-52.68037 3.67538,0 0,49.22119 25.11506,0 0,3.45918 -28.79044,0"
         id="path4806" />
      <path
         d="m 651.77176,514.55627 -28.79043,0 0,-52.68037 28.79043,0 0,3.38711 -25.11506,0 0,19.92629 23.70977,0 0,3.38711 -23.70977,0 0,22.59275 25.11506,0 0,3.38711"
         id="path4808" />
      <path
         d="m 686.94004,514.55627 -19.63803,-48.64467 -0.28826,0 c 0.19216,2.97878 0.28825,6.02958 0.28826,9.15241 l 0,39.49226 -3.53124,0 0,-52.68037 5.69323,0 18.66514,46.33855 0.21619,0 18.66514,-46.33855 5.5491,0 0,52.68037 -3.71141,0 0,-39.92466 c -5e-5,-2.78652 0.14408,-5.66916 0.4324,-8.64794 l -0.28827,0 -19.7101,48.5726 -2.34215,0"
         id="path4810" />
      <path
         d="m 756.55598,500.97179 c -3e-5,4.39605 -1.62152,7.87925 -4.86446,10.4496 -3.21899,2.57036 -7.50692,3.85554 -12.86382,3.85554 -6.43792,0 -11.37445,-0.70865 -14.80959,-2.12595 l 0,-3.67538 c 3.79547,1.60948 8.63591,2.41422 14.52133,2.41422 4.32395,0 7.74709,-0.9849 10.26943,-2.95471 2.54631,-1.99383 3.81947,-4.60022 3.81951,-7.81918 -4e-5,-1.99382 -0.42042,-3.63933 -1.26116,-4.93654 -0.8408,-1.32119 -2.21006,-2.52229 -4.10777,-3.6033 -1.89777,-1.08097 -4.68433,-2.24604 -8.35968,-3.49521 -5.38095,-1.84967 -9.10437,-3.8435 -11.17026,-5.9815 -2.04188,-2.16195 -3.06281,-5.03258 -3.06281,-8.6119 0,-3.93958 1.53741,-7.14652 4.61224,-9.62084 3.09883,-2.49824 7.07448,-3.74739 11.92695,-3.74744 4.94852,5e-5 9.59678,0.93691 13.9448,2.81058 l -1.33322,3.17091 c -4.37205,-1.82562 -8.55188,-2.73846 -12.53952,-2.73851 -3.89159,5e-5 -6.99043,0.90088 -9.29653,2.70248 -2.30613,1.8017 -3.45919,4.25195 -3.45918,7.35075 -10e-6,1.94582 0.34831,3.54329 1.04496,4.7924 0.72065,1.24918 1.88572,2.37822 3.49521,3.38711 1.60946,0.98494 4.372,2.17403 8.28761,3.56728 4.10775,1.41732 7.19458,2.79859 9.2605,4.1438 2.06587,1.32124 3.56724,2.83463 4.50414,4.54017 0.96085,1.68156 1.44129,3.72344 1.44132,6.12562"
         id="path4812" />
    </g>
    <g
       transform="matrix(-0.29812009,0,0,-0.29812009,294.12946,164.30894)"
       id="text4282"
       style="font-size:23.48047066px;font-style:normal;font-variant:normal;font-weight:300;font-stretch:normal;text-align:start;line-height:125%;letter-spacing:0px;word-spacing:0px;writing-mode:lr-tb;text-anchor:start;fill:#2b71b4;fill-opacity:1;stroke:none;font-family:Open Sans;-inkscape-font-specification:Open Sans Light">
      <path
         d="m 345.98282,269.4671 c 2.09968,-0.0972 3.7216,-0.84564 4.86575,-2.24527 1.14415,-1.39965 1.66215,-3.26766 1.55399,-5.60402 -0.11063,-2.38982 -0.76534,-4.21884 -1.96414,-5.48706 -1.19879,-1.26823 -2.85566,-1.85339 -4.97062,-1.75548 -1.40487,0.065 -2.68691,0.3042 -3.84613,0.71749 l -0.0477,-1.03076 c 1.08909,-0.44064 2.46205,-0.69932 4.11888,-0.77602 2.35165,-0.10886 4.23835,0.56512 5.66012,2.02197 1.42177,1.45684 2.19575,3.54814 2.32193,6.27392 0.0788,1.70264 -0.1724,3.2178 -0.75367,4.54549 -0.5889,1.32801 -1.47027,2.37117 -2.64412,3.12947 -1.18112,0.76625 -2.57338,1.1865 -4.17678,1.26075 -1.63392,0.0756 -3.1102,-0.1621 -4.42884,-0.71316 l 0.42079,-1.0754 c 1.24992,0.55425 2.54677,0.80027 3.89056,0.73808"
         id="path4815"
         style="line-height:125%;font-family:Open Sans;-inkscape-font-specification:Open Sans Light" />
      <path
         d="m 337.83845,254.13387 2.1967,16.61737 -1.15935,0.15326 -2.05246,-15.52622 -7.92223,1.04726 -0.14425,-1.09115 9.08159,-1.20052"
         id="path4817"
         style="line-height:125%;font-family:Open Sans;-inkscape-font-specification:Open Sans Light" />
      <path
         d="m 325.91483,255.93784 3.15339,16.46265 -1.14856,0.22 -3.15338,-16.46265 1.14855,-0.22"
         id="path4819"
         style="line-height:125%;font-family:Open Sans;-inkscape-font-specification:Open Sans Light" />
      <path
         d="m 317.20972,274.30271 c 2.03378,-0.53093 3.46502,-1.59971 4.29373,-3.20634 0.82872,-1.60666 0.9477,-3.5415 0.35694,-5.80453 -0.60427,-2.31481 -1.62437,-3.9681 -3.0603,-4.95987 -1.43592,-0.99178 -3.17817,-1.22028 -5.22674,-0.68551 -1.36077,0.35523 -2.56525,0.85529 -3.61344,1.50019 l -0.26063,-0.9984 c 0.97391,-0.65711 2.26327,-1.19513 3.8681,-1.61406 2.27783,-0.59462 4.26335,-0.32693 5.95654,0.80307 1.6932,1.13 2.8844,3.01511 3.57362,5.65532 0.43052,1.6492 0.49926,3.18351 0.20624,4.60293 -0.30043,1.42133 -0.94608,2.62471 -1.93696,3.61015 -0.99635,0.99473 -2.27105,1.69482 -3.82412,2.10026 -1.58264,0.41312 -3.07611,0.487 -4.48042,0.22165 l 0.18841,-1.13932 c 1.33774,0.28273 2.65742,0.25422 3.95903,-0.0855"
         id="path4821"
         style="line-height:125%;font-family:Open Sans;-inkscape-font-specification:Open Sans Light" />
      <path
         d="m 295.45326,264.80384 1.34802,-0.48652 9.05471,6.14186 1.43346,-2.61386 -2.33533,-6.47051 1.09999,-0.397 5.6904,15.76647 -1.09998,0.39701 -2.95808,-8.19598 -1.1165,2.37757 -3.8518,8.67918 -1.40194,0.50599 4.05434,-8.99606 -9.91729,-6.70815"
         id="path4823"
         style="line-height:125%;font-family:Open Sans;-inkscape-font-specification:Open Sans Light" />
      <path
         d="m 283.823,270.31896 1.0543,-0.53196 7.05487,13.98231 4.86207,-2.45319 0.4958,0.98265 -10.77845,5.43834 -0.4958,-0.98265 4.86207,-2.45319 -7.05486,-13.98231"
         id="path4825"
         style="line-height:125%;font-family:Open Sans;-inkscape-font-specification:Open Sans Light" />
      <path
         d="m 269.74639,288.37827 c -1.41765,-2.25063 -1.97731,-4.38679 -1.67898,-6.40847 0.30243,-2.01523 1.44313,-3.64612 3.42211,-4.89268 1.97253,-1.24249 3.9329,-1.56496 5.8811,-0.96739 1.95228,0.60403 3.64132,2.03782 5.06713,4.30138 1.42173,2.25708 1.97408,4.3888 1.65706,6.39518 -0.31943,2.01689 -1.46217,3.64454 -3.42823,4.88298 -1.97899,1.24654 -3.93935,1.56901 -5.88109,0.96739 -1.93766,-0.59519 -3.61736,-2.02132 -5.0391,-4.27839 m 11.60233,-7.30828 c -1.27915,-2.03074 -2.72178,-3.31713 -4.32788,-3.85918 -1.60203,-0.53559 -3.25026,-0.26972 -4.9447,0.7976 -1.70736,1.07546 -2.66425,2.44604 -2.87068,4.11174 -0.21287,1.66975 0.32637,3.5297 1.61773,5.57984 1.28731,2.04365 2.72587,3.32358 4.31567,3.83978 1.58742,0.5267 3.22834,0.25641 4.92277,-0.81089 1.68797,-1.06327 2.64486,-2.43384 2.87068,-4.11174 0.21935,-1.67385 -0.30851,-3.5229 -1.58359,-5.54715"
         id="path4827"
         style="line-height:125%;font-family:Open Sans;-inkscape-font-specification:Open Sans Light" />
      <path
         d="m 261.17885,293.64342 -4.71423,-5.57796 0.89317,-0.75487 10.81979,12.80215 -3.0473,2.57543 c -1.58787,1.34197 -3.01041,2.03886 -4.26762,2.09066 -1.25228,0.0576 -2.37673,-0.50321 -3.37336,-1.68241 -0.72526,-0.85816 -1.10938,-1.77446 -1.15235,-2.74889 -0.0488,-0.96952 0.27943,-1.97248 0.9847,-3.00886 l -8.40521,-2.89383 1.0683,-0.90288 8.01547,2.7879 3.17864,-2.68644 m 0.65126,0.77058 -2.44309,2.06478 c -1.07998,0.91274 -1.71541,1.86008 -1.90629,2.84204 -0.18594,0.98776 0.11825,1.95158 0.91259,2.89147 0.82394,0.97489 1.71528,1.43748 2.67402,1.38779 0.95874,-0.0497 2.09777,-0.6321 3.41711,-1.74712 l 2.11909,-1.79096 -4.77343,-5.648"
         id="path4829"
         style="line-height:125%;font-family:Open Sans;-inkscape-font-specification:Open Sans Light" />
      <path
         d="m 240.38465,302.96412 6.46963,-6.4854 11.8669,11.83804 -6.46963,6.4854 -0.76299,-0.76113 5.64372,-5.65748 -4.48864,-4.47772 -5.32793,5.34091 -0.76299,-0.76113 5.32793,-5.34092 -5.08929,-5.07691 -5.64372,5.65747 -0.76299,-0.76113"
         id="path4831"
         style="line-height:125%;font-family:Open Sans;-inkscape-font-specification:Open Sans Light" />
      <path
         d="m 237.07854,306.70297 0.75876,-0.88987 12.75473,10.87564 -5.95854,6.98806 -0.82008,-0.69926 5.19978,-6.09819 -5.40898,-4.6121 -4.90966,5.75795 -0.8288,-0.7067 4.90967,-5.75794 -5.69688,-4.85759"
         id="path4833"
         style="line-height:125%;font-family:Open Sans;-inkscape-font-specification:Open Sans Light" />
      <path
         d="m 235.54278,320.09892 -5.92394,-4.27135 0.68395,-0.94857 13.59624,9.80331 -2.33349,3.23631 c -1.21592,1.68634 -2.42753,2.70676 -3.63485,3.06126 -1.20112,0.35893 -2.42786,0.0869 -3.68022,-0.81607 -0.91138,-0.65715 -1.50582,-1.45325 -1.78332,-2.38832 -0.28197,-0.9289 -0.2062,-1.98148 0.22731,-3.15773 l -8.85569,-0.7738 0.81806,-1.13457 8.45189,0.76534 2.43406,-3.37581 m 0.81838,0.59008 -1.87081,2.59463 c -0.827,1.14695 -1.21429,2.21991 -1.16187,3.21887 0.0586,1.0034 0.58701,1.86496 1.58518,2.58469 1.03537,0.74652 2.01216,0.97967 2.93038,0.69944 0.91821,-0.28026 1.88246,-1.12096 2.89275,-2.5221 l 1.62271,-2.25054 -5.99834,-4.32499"
         id="path4835"
         style="line-height:125%;font-family:Open Sans;-inkscape-font-specification:Open Sans Light" />
      <path
         d="m 217.62649,334.17729 4.70398,-7.8606 14.38323,8.60728 -4.70399,7.8606 -0.92477,-0.55341 4.10347,-6.85711 -5.44044,-3.2557 -3.87387,6.47343 -0.92477,-0.55341 3.87386,-6.47343 -6.16845,-3.69136 -4.10348,6.85712 -0.92477,-0.55341"
         id="path4837"
         style="line-height:125%;font-family:Open Sans;-inkscape-font-specification:Open Sans Light" />
      <path
         d="m 215.63225,347.76452 c -1.25517,-0.61727 -2.02203,-1.56933 -2.30057,-2.85618 -0.28192,-1.28001 -0.0468,-2.68477 0.7054,-4.21429 0.90397,-1.83818 1.79946,-3.14818 2.68647,-3.92998 l 1.04941,0.51607 c -0.99249,0.8577 -1.90192,2.12677 -2.72831,3.8072 -0.60714,1.23458 -0.80658,2.35027 -0.59832,3.34704 0.21175,1.00699 0.77717,1.73648 1.69625,2.18848 0.56929,0.27995 1.09815,0.39097 1.58658,0.33306 0.49529,-0.0546 1.0305,-0.27686 1.60562,-0.66691 0.57511,-0.39008 1.29904,-1.02211 2.17177,-1.89612 1.28368,-1.27667 2.37579,-2.05983 3.27631,-2.34949 0.904,-0.27944 1.86698,-0.16786 2.88897,0.33472 1.12484,0.55317 1.82462,1.44243 2.09935,2.6678 0.27819,1.23557 0.0766,2.54611 -0.60471,3.93161 -0.69486,1.41292 -1.61503,2.60856 -2.76053,3.58693 l -0.71816,-0.8259 c 1.13515,-0.99198 1.98269,-2.05725 2.54262,-3.19581 0.54642,-1.11114 0.72433,-2.12243 0.53373,-3.03384 -0.19061,-0.91144 -0.72831,-1.58471 -1.6131,-2.01982 -0.55557,-0.27322 -1.0606,-0.39807 -1.51507,-0.37456 -0.45786,0.0304 -0.94381,0.20449 -1.45787,0.52237 -0.50721,0.32125 -1.23462,0.94305 -2.18223,1.86542 -0.98147,0.97385 -1.80928,1.66126 -2.48345,2.06225 -0.66732,0.40433 -1.31024,0.62051 -1.92877,0.64854 -0.61504,0.0382 -1.26551,-0.1113 -1.95139,-0.44859"
         id="path4839"
         style="line-height:125%;font-family:Open Sans;-inkscape-font-specification:Open Sans Light" />
      <path
         d="m 206.0045,360.45245 0.41807,-1.10442 7.70951,2.91838 3.46634,-9.15705 -7.70951,-2.91838 0.41402,-1.0937 15.67635,5.93418 -0.41401,1.0937 -6.95893,-2.63426 -3.46634,9.15705 6.95893,2.63426 -0.41807,1.10442 -15.67636,-5.93418"
         id="path4841"
         style="line-height:125%;font-family:Open Sans;-inkscape-font-specification:Open Sans Light" />
    </g>
  </g>
</svg>
